<svg xmlns="http://www.w3.org/2000/svg" viewBox="0 0 39.56 41.99"><defs><style>.cls-1{fill:#777;}</style></defs><title>Asset 10</title><g id="Layer_2" data-name="Layer 2"><g id="Layer_1-2" data-name="Layer 1"><path class="cls-1" d="M37.34,4H23.78a4,4,0,1,0-8,0H2.22a2.22,2.22,0,1,0,0,4.43H37.34a2.22,2.22,0,1,0,0-4.43Z"/><path class="cls-1" d="M4.11,37.11A4.88,4.88,0,0,0,9,42H30.57a4.88,4.88,0,0,0,4.88-4.88V13.45H4.11ZM26,20.36h4.46V32.78H26Zm-8.43,0H22V32.78H17.55Zm-8.43,0h4.46V32.78H9.12Z"/></g></g></svg>