<svg xmlns="http://www.w3.org/2000/svg" viewBox="0 0 31.82 42"><defs><style>.cls-1{fill:#ea1f33;}</style></defs><title>Asset 12</title><g id="Layer_2" data-name="Layer 2"><g id="Layer_1-2" data-name="Layer 1"><path class="cls-1" d="M16.05,23.24a7.47,7.47,0,1,1,7.47-7.47A7.47,7.47,0,0,1,16.05,23.24ZM31.8,16.59c0-.23,0-.45,0-.69A15.91,15.91,0,0,0,0,15.9c0,.24,0,.46,0,.69H0s-.55,6.29,7.13,14.52a37.17,37.17,0,0,1,6.12,8.82v0q.15.27.27.54a.08.08,0,0,0,0,0A2.73,2.73,0,0,0,15.91,42a2.76,2.76,0,0,0,2.36-1.47s0,0,0,0c.08-.18.17-.36.26-.54v0a36.59,36.59,0,0,1,6.12-8.82c7.68-8.23,7.13-14.52,7.13-14.52Z"/></g></g></svg>