<svg xmlns="http://www.w3.org/2000/svg" viewBox="0 0 110.82 110.82"><defs><style>.cls-1{stroke:#fff;stroke-miterlimit:10;stroke-width:3px;}.cls-2{fill:#fff;}</style></defs><g id="Layer_2" data-name="Layer 2"><g id="Layer_1-2" data-name="Layer 1"><circle class="cls-1" cx="55.41" cy="55.41" r="53.9"/><path class="cls-2" d="M75.12,39.33H58.65a4.56,4.56,0,0,0-4.46-5.46H39.64a4.56,4.56,0,0,0-4.55,4.55,4.83,4.83,0,0,0,.09.94,7.3,7.3,0,0,0-6.77,7.25v23a7.3,7.3,0,0,0,7.28,7.28H75.12a7.29,7.29,0,0,0,7.28-7.28v-23A7.3,7.3,0,0,0,75.12,39.33ZM55.41,67.84a9.4,9.4,0,1,1,9.4-9.4A9.4,9.4,0,0,1,55.41,67.84ZM71.18,53.28a2.73,2.73,0,1,1,2.73-2.72A2.72,2.72,0,0,1,71.18,53.28Z"/></g></g></svg>