<svg xmlns="http://www.w3.org/2000/svg" xmlns:xlink="http://www.w3.org/1999/xlink" viewBox="0 0 241.91 241.91"><defs><style>.cls-1{opacity:0.85;}.cls-2{fill:#fd4401;}.cls-3{fill:#fd4401;}</style><linearGradient id="linear-gradient" x1="96.07" y1="87.43" x2="145.94" y2="87.43" gradientUnits="userSpaceOnUse"><stop offset="0" stop-color="red"/><stop offset="1" stop-color="red"/></linearGradient></defs><g id="Layer_2" data-name="Layer 2"><g id="Layer_1-2" data-name="Layer 1"><g class="cls-1"><circle fill="#ffffff" cx="120.95" cy="120.95" r="120.95"/></g><path class="cls-2" d="M120.72,183.09C104.38,183,89.25,179,75.62,169.7a6.19,6.19,0,0,1-3.08-5.82c.14-15.72,7.64-26.44,23.1-31.15a85.62,85.62,0,0,1,50.61,0c15.44,4.69,23,15.48,23.11,31.15a6.18,6.18,0,0,1-3.09,5.81C153.58,178.31,137.31,183.19,120.72,183.09Z"/><path class="cls-3" d="M145.94,84.91c-.45,9.6-2.84,17.59-9.07,24-9,9.34-22.21,9.47-31.45.4S93.3,83.63,99,72c4.68-9.51,14.34-14.38,25.67-12.94A23.46,23.46,0,0,1,145,78.23C145.51,80.7,145.71,83.23,145.94,84.91Z"/></g></g></svg>