<svg xmlns="http://www.w3.org/2000/svg" viewBox="0 0 42.22 37.13"><defs><style>.cls-1{fill:#777;fill-rule:evenodd;}</style></defs><title>Asset 15</title><g id="Layer_2" data-name="Layer 2"><g id="Layer_1-2" data-name="Layer 1"><path class="cls-1" d="M36.13,8H33.46V0H8.76V8H6.1A6.11,6.11,0,0,0,0,14.06V31a6.1,6.1,0,0,0,6.1,6.1h30A6.1,6.1,0,0,0,42.22,31v-17A6.1,6.1,0,0,0,36.13,8ZM12.05,11.25v-8H30.17V16H12.05ZM38.93,31a2.81,2.81,0,0,1-2.8,2.81H6.1A2.81,2.81,0,0,1,3.29,31v-17A2.81,2.81,0,0,1,6.1,11.25H8.76v8.08h24.7V11.25h2.67a2.81,2.81,0,0,1,2.8,2.81Z"/><path class="cls-1" d="M31.81,25.15H10.41a1.65,1.65,0,1,0,0,3.29h21.4a1.65,1.65,0,1,0,0-3.29Z"/></g></g></svg>