<svg xmlns="http://www.w3.org/2000/svg" xmlns:xlink="http://www.w3.org/1999/xlink" viewBox="0 0 1080 555"><defs><style>.cls-1{fill:url(#radial-gradient);}.cls-2{fill:url(#radial-gradient-2);}.cls-3{fill:url(#radial-gradient-3);}.cls-4{fill:url(#radial-gradient-4);}</style><radialGradient id="radial-gradient" cx="540.16" cy="277.97" r="429.03" gradientUnits="userSpaceOnUse"><stop offset="0" stop-color="#ff664d"/><stop offset="1" stop-color="#ff592c"/></radialGradient><radialGradient id="radial-gradient-2" cx="470.44" cy="277.5" r="386.21" gradientUnits="userSpaceOnUse"><stop offset="0" stop-color="#ff5e39"/><stop offset="1" stop-color="#ff501a"/></radialGradient><radialGradient id="radial-gradient-3" cx="370.19" cy="277.5" r="327.14" gradientUnits="userSpaceOnUse"><stop offset="0" stop-color="#ff5622"/><stop offset="1" stop-color="#ff4a03"/></radialGradient><radialGradient id="radial-gradient-4" cx="274.01" cy="217.38" r="239.58" gradientUnits="userSpaceOnUse"><stop offset="0" stop-color="#ff451a"/><stop offset="1" stop-color="#f23900"/></radialGradient></defs><g id="Layer_2" data-name="Layer 2"><g id="Layer_1-2" data-name="Layer 1"><rect class="cls-1" x="0.32" y="1" width="1079.68" height="553.94"/><path class="cls-2" d="M940.88,180A576.71,576.71,0,0,1,803.12,554.94l0,.06H126.55c-1.31,0-2.62,0-3.92-.06A126.55,126.55,0,0,1,.32,437.42Q0,433,0,428.41V0H.32V1H912.69A578.44,578.44,0,0,1,940.88,180Z"/><path class="cls-3" d="M740.38,173.21c0,163.31-89,305.84-221,381.73l-.1.06H126.55c-1.31,0-2.62,0-3.92-.06A126.55,126.55,0,0,1,.32,437.42Q0,433,0,428.41V0H.32V1H705.4A438.52,438.52,0,0,1,740.38,173.21Z"/><path class="cls-4" d="M534.73,173c0,144-116.72,260.8-260.72,260.8S13.28,317,13.28,173A259.76,259.76,0,0,1,78,1H470A259.8,259.8,0,0,1,534.73,173Z"/></g></g></svg>