<svg xmlns="http://www.w3.org/2000/svg" viewBox="0 0 115.12 112.53"><defs><style>.cls-1{fill:#fef102;}.cls-2{fill:#1a1803;}</style></defs><g id="Layer_2" data-name="Layer 2"><g id="Layer_1-2" data-name="Layer 1"><path class="cls-1" d="M108.4,85.22,39.24,111.83a10.49,10.49,0,0,1-13.55-6L.7,40.86a10.49,10.49,0,0,1,6-13.55L75.87.7a10.49,10.49,0,0,1,13.55,6l25,65A10.48,10.48,0,0,1,108.4,85.22Z"/><path class="cls-2" d="M56.43,25.8a1.89,1.89,0,0,0,1.89-1.89V9.58a4.48,4.48,0,0,1,5,0V23.91a1.89,1.89,0,1,0,3.78,0V9.58a4.48,4.48,0,0,1,5,0V23.91a1.89,1.89,0,1,0,3.78,0V9.5C76,7,73.27,5,69.67,5a7.81,7.81,0,0,0-4.41,1.23A7.82,7.82,0,0,0,60.84,5C57.25,5,54.54,7,54.54,9.5V23.91A1.89,1.89,0,0,0,56.43,25.8Z"/><path class="cls-2" d="M83.29,25.42a6.63,6.63,0,0,0,2.53-.49V38a6.52,6.52,0,1,1-6.52-6.51,1.89,1.89,0,1,0,0-3.78A10.3,10.3,0,1,0,89.6,38h0V14.59h0V9.77a1.89,1.89,0,0,0-3.78,0V19.6a2.58,2.58,0,0,1-5,0V9.77a1.89,1.89,0,1,0-3.78,0V19.6A6.08,6.08,0,0,0,83.29,25.42Z"/><path class="cls-2" d="M52,31.13A16.38,16.38,0,0,0,35.62,14.76H17.3V74.55a1.89,1.89,0,1,0,3.78,0V47.49H35.62A16.38,16.38,0,0,0,52,31.13ZM21.08,18.54H35.62a12.59,12.59,0,0,1,0,25.17H21.08Z"/><path class="cls-2" d="M48.22,75a1.87,1.87,0,0,0,1.18.42,1.89,1.89,0,0,0,1.18-3.37c-1.5-1.2-1.5-1.2-1.5-5.21V50a1.89,1.89,0,1,0-3.78,0v1.28a13.64,13.64,0,1,0,.43,20.56A6.48,6.48,0,0,0,48.22,75ZM45.3,66.4a9.86,9.86,0,1,1,0-9.22Z"/><path class="cls-2" d="M96.36,63.93a1.89,1.89,0,0,0-2.42,1.13,9.51,9.51,0,0,1-16.5,2.5L96.71,55.18l-1.3-1.63a13.28,13.28,0,0,0-23.69,8.26,13.42,13.42,0,0,0,.77,4.44l-.1.07.78,1.52h0L74,69.49A19.92,19.92,0,0,0,66.51,68c-5.7,0-8.26,1.71-8.54,1.9L58,70a6.62,6.62,0,0,1-1.27.15,2.94,2.94,0,1,1,0-5.87,1.84,1.84,0,0,0,.47-.06A8.33,8.33,0,0,0,67.74,52.55l4.46-4.21a1.89,1.89,0,0,0-2.6-2.75l-4.39,4.14a8.32,8.32,0,0,0-11.6,11.58A6.71,6.71,0,0,0,56.76,74,17.12,17.12,0,0,0,63.5,72a19.69,19.69,0,0,1,3-.21A16.23,16.23,0,1,1,50.29,88c0-3.38.62-5.92,1.85-7.56a1.89,1.89,0,0,0-3-2.27c-1.75,2.34-2.6,5.56-2.6,9.83A20,20,0,1,0,81.3,74.57a13.32,13.32,0,0,0,16.19-8.22A1.88,1.88,0,0,0,96.36,63.93ZM60.43,52a4.55,4.55,0,1,1-4.54,4.55A4.55,4.55,0,0,1,60.43,52ZM75.5,61.81A9.5,9.5,0,0,1,91,54.39L75.79,64.13A9.45,9.45,0,0,1,75.5,61.81Z"/></g></g></svg>