<svg xmlns="http://www.w3.org/2000/svg" viewBox="0 0 63.07 61.66"><defs><style>.cls-1{fill:#fef102;}.cls-2{fill:#1a1803;}</style></defs><title>Asset 26</title><g id="Layer_2" data-name="Layer 2"><g id="Layer_1-2" data-name="Layer 1"><path class="cls-1" d="M59.39,46.69,21.5,61.27A5.74,5.74,0,0,1,14.08,58L.38,22.39A5.75,5.75,0,0,1,3.68,15L41.57.38A5.76,5.76,0,0,1,49,3.68L62.69,39.27A5.74,5.74,0,0,1,59.39,46.69Z"/><path class="cls-2" d="M30.92,14.14a1,1,0,0,0,1-1V5.25a2,2,0,0,1,1.39-.43,1.92,1.92,0,0,1,1.38.43V13.1a1,1,0,1,0,2.07,0V5.25a2.45,2.45,0,0,1,2.77,0V13.1a1,1,0,1,0,2.07,0V5.21c0-1.4-1.49-2.46-3.46-2.46a4.26,4.26,0,0,0-2.41.67,4.32,4.32,0,0,0-2.42-.67c-2,0-3.46,1.06-3.46,2.46V13.1A1,1,0,0,0,30.92,14.14Z"/><path class="cls-2" d="M45.64,13.93A3.69,3.69,0,0,0,47,13.66v7.17a3.57,3.57,0,1,1-3.57-3.57,1,1,0,1,0,0-2.07,5.64,5.64,0,1,0,5.64,5.64h0V8h0V5.35a1,1,0,0,0-2.07,0v5.39a1.42,1.42,0,0,1-2.77,0V5.35a1,1,0,0,0-2.07,0v5.39A3.33,3.33,0,0,0,45.64,13.93Z"/><path class="cls-2" d="M28.48,17.06a9,9,0,0,0-9-9h-10V40.85a1,1,0,0,0,2.07,0V26h8A9,9,0,0,0,28.48,17.06Zm-16.93-6.9h8a6.9,6.9,0,0,1,0,13.79h-8Z"/><path class="cls-2" d="M26.42,41.1a1,1,0,0,0,1.45-.16,1,1,0,0,0-.16-1.46c-.82-.65-.82-.65-.82-2.85V27.42a1,1,0,1,0-2.07,0v.7a7.47,7.47,0,1,0,.24,11.27A3.56,3.56,0,0,0,26.42,41.1Zm-1.6-4.72a5.4,5.4,0,1,1,0-5.05Z"/><path class="cls-2" d="M52.8,35a1,1,0,0,0-1.33.62,5.22,5.22,0,0,1-4.89,3.42,5.16,5.16,0,0,1-4.15-2L53,30.24l-.72-.9a7.21,7.21,0,0,0-5.69-2.75,7.28,7.28,0,0,0-7.28,7.28,7.18,7.18,0,0,0,.42,2.43l-.06,0,.43.83h0l.46.9a11,11,0,0,0-4.11-.8c-3.12,0-4.53.94-4.68,1l0,0a3.73,3.73,0,0,1-.7.09,1.61,1.61,0,0,1,0-3.22,1.09,1.09,0,0,0,.26,0,4.63,4.63,0,0,0,1.75.35A4.58,4.58,0,0,0,37.68,31a4.52,4.52,0,0,0-.57-2.19l2.45-2.3a1.05,1.05,0,0,0,0-1.47,1,1,0,0,0-1.46,0l-2.41,2.27a4.56,4.56,0,0,0-6.36,6.34,3.68,3.68,0,0,0,1.73,6.93,9.37,9.37,0,0,0,3.69-1.06,11,11,0,0,1,1.65-.12,8.89,8.89,0,1,1-8.89,8.89,6.88,6.88,0,0,1,1-4.14,1,1,0,0,0-1.66-1.24,8.74,8.74,0,0,0-1.43,5.38,11,11,0,1,0,19.06-7.37,7.28,7.28,0,0,0,8.88-4.51A1,1,0,0,0,52.8,35ZM33.11,28.49A2.5,2.5,0,1,1,30.62,31,2.5,2.5,0,0,1,33.11,28.49Zm8.26,5.38a5.21,5.21,0,0,1,8.46-4.07l-8.3,5.34A4.91,4.91,0,0,1,41.37,33.87Z"/></g></g></svg>