<svg xmlns="http://www.w3.org/2000/svg" viewBox="0 0 240.25 110.6"><defs><style>.cls-1{fill:#b11117;}</style></defs><g id="Layer_2" data-name="Layer 2"><g id="Layer_1-2" data-name="Layer 1"><path class="cls-1" d="M73.51,2.36c-6-4.58-10-1.57-10,1.28s3.42,4.85-1,11.41S43.84,28.32,34.43,31.17c0,0,7.56-18.11,9-22.68S42.85,3.36,40,3.78a31.28,31.28,0,0,1-3.71.43c-4.84-.57-7.27-1.85-9.41-.85s-1.28,4,1.71,6.56S26.73,22,21.31,35,11.18,58,16.6,62.41,26,61.26,28.73,58.13s3.85-5.71,1.56-8.56-.57-11.84,4-13.84,18-5.13,30.52-14S79.5,6.94,73.51,2.36Z"/><path class="cls-1" d="M69.09,46.72c-1.43.42-2.71,3.56-6.85,2.71S49.55,35.31,47.7,34.88,41.85,37,41.85,37s2.28,2.42,5.42,9.13,7.56,17,12.69,17.9S70.37,57.56,71.8,53.56,70.52,46.29,69.09,46.72Z"/><path class="cls-1" d="M106.17,58.13c2.71-3.14,3.85-5.71,1.57-8.56s-.57-11.84,4-13.84,18-5.13,30.52-14S156.94,6.94,151,2.36,141,.79,141,3.64s3.42,4.85-1,11.41-18.68,13.27-28.1,16.12c0,0,7.56-18.11,9-22.68s-.57-5.13-3.42-4.71a31.54,31.54,0,0,1-3.71.43c-4.85-.57-7.28-1.85-9.42-.85S103,7.35,106,9.92,104.17,22,98.75,35,88.62,58,94,62.41,103.46,61.26,106.17,58.13Z"/><path class="cls-1" d="M149.24,53.56c1.43-4-1.28-7.27-2.71-6.84s-2.71,3.56-6.84,2.71S127,35.31,125.14,34.88,119.29,37,119.29,37s2.28,2.42,5.42,9.13,7.56,17,12.69,17.9S147.82,57.56,149.24,53.56Z"/><path class="cls-1" d="M217.85,3.07c-8.7,1-19,10.84-25.81,25.25s-14.41,23.53-19.83,24-12.27-1.14-13,4.71,5.85,10.12,14.26,5.42S192.89,36,192.89,36h10l2.28-4.56-9.7-.43S203,15.48,210.29,11.77s12.84-1.71,12.84-1.71C226.7,7.35,226.55,2.07,217.85,3.07Z"/><path class="cls-1" d="M221.13,50.42c-1.14-3-5.13-3.83-4.13-11.54s2.85-15.27,3.42-20.55-1.2-6-4.42-4.85c-3.07,1.11-5.42.86-6.42,5.85S204.45,53,205,58.27s4,7.7,8.27,4.71S222.27,53.42,221.13,50.42Z"/><path class="cls-1" d="M9.61,94.06h7.63A6.81,6.81,0,0,1,15,98.47a6.6,6.6,0,0,1-4.46,1.6,7.54,7.54,0,0,1-3.73-.89,6.16,6.16,0,0,1-2.49-2.61,8.83,8.83,0,0,1-.88-4.1,8.49,8.49,0,0,1,.87-4,6.19,6.19,0,0,1,2.42-2.59A6.71,6.71,0,0,1,10.23,85a6.68,6.68,0,0,1,3.67,1,5.74,5.74,0,0,1,2.23,2.69h3.53a8.59,8.59,0,0,0-3.27-5,10.18,10.18,0,0,0-6.19-1.82,10.42,10.42,0,0,0-5.35,1.34A9.15,9.15,0,0,0,1.27,87a12.54,12.54,0,0,0,0,11,9.24,9.24,0,0,0,3.6,3.76,10.49,10.49,0,0,0,5.36,1.35A10.08,10.08,0,0,0,15.05,102a9.44,9.44,0,0,0,3.39-3,10.11,10.11,0,0,0,1.64-4.17V91.58H9.61Z"/><path class="cls-1" d="M35.14,87.43a8.92,8.92,0,0,0-4.25-1,8.81,8.81,0,0,0-4.23,1,7.3,7.3,0,0,0-2.94,2.89,8.72,8.72,0,0,0-1.08,4.42,8.85,8.85,0,0,0,1.08,4.44,7.32,7.32,0,0,0,2.94,2.9,8.81,8.81,0,0,0,4.23,1,8.92,8.92,0,0,0,4.25-1,7.2,7.2,0,0,0,3-2.89,9,9,0,0,0,1.06-4.45,8.92,8.92,0,0,0-1.06-4.42A7.2,7.2,0,0,0,35.14,87.43ZM35,97.75a4.4,4.4,0,0,1-1.76,1.79,5.12,5.12,0,0,1-4.77,0,4.34,4.34,0,0,1-1.76-1.79,7.15,7.15,0,0,1,0-6,4.36,4.36,0,0,1,1.76-1.82,5.12,5.12,0,0,1,4.77,0A4.42,4.42,0,0,1,35,91.75a7.15,7.15,0,0,1,0,6Z"/><rect class="cls-1" x="42.39" y="81.06" width="3.36" height="21.81"/><path class="cls-1" d="M62.29,90.41a5.72,5.72,0,0,0-2.18-2.89,6.43,6.43,0,0,0-3.78-1.09,7.14,7.14,0,0,0-3.78,1,6.74,6.74,0,0,0-2.61,2.89A9.73,9.73,0,0,0,49,94.74a9.83,9.83,0,0,0,.95,4.45,6.74,6.74,0,0,0,2.61,2.89,7.14,7.14,0,0,0,3.78,1A6.43,6.43,0,0,0,60.11,102a5.76,5.76,0,0,0,2.18-2.89v3.77h3.39V81.06H62.29Zm-.62,7.16a4.69,4.69,0,0,1-1.77,1.87,4.91,4.91,0,0,1-2.54.66,4.66,4.66,0,0,1-3.58-1.43,6.45,6.45,0,0,1,0-7.87,4.7,4.7,0,0,1,3.58-1.43A4.91,4.91,0,0,1,59.9,90a4.66,4.66,0,0,1,1.77,1.88,6.46,6.46,0,0,1,0,5.65Z"/><path class="cls-1" d="M82.82,88.31a2.87,2.87,0,0,1-.31-1.38,2.19,2.19,0,0,1,.63-1.59,2.32,2.32,0,0,1,1.76-.65,2.54,2.54,0,0,1,1.9.7,2.79,2.79,0,0,1,.72,2,5,5,0,0,1,0,.65v.32h3.18a6.79,6.79,0,0,0-.2-2.09A5.4,5.4,0,0,0,88.8,83.1a5.68,5.68,0,0,0-4-1.24,6.32,6.32,0,0,0-3,.66,4.52,4.52,0,0,0-2.52,4.08,4.73,4.73,0,0,0,.38,2,7.88,7.88,0,0,0,1.09,1.76l.38.53H81a5.37,5.37,0,0,0-2.75.71,5.13,5.13,0,0,0-2,2.06,6.73,6.73,0,0,0-.72,3.21,6.49,6.49,0,0,0,.8,3.24,5.54,5.54,0,0,0,2.24,2.21,6.74,6.74,0,0,0,3.36.8,5.43,5.43,0,0,0,3.26-1A4.47,4.47,0,0,0,87,99.51a4.27,4.27,0,0,0,.29-1l3.9,4.39h3.45L83.78,89.7A7.63,7.63,0,0,1,82.82,88.31Zm1.94,6.83A3.24,3.24,0,0,1,85.28,97a3.17,3.17,0,0,1-.93,2.36,3.23,3.23,0,0,1-2.37.91,3.56,3.56,0,0,1-2.49-.93,3.28,3.28,0,0,1-1-2.55,3.33,3.33,0,0,1,.88-2.46,3.15,3.15,0,0,1,2.3-.87,3.72,3.72,0,0,1,3.11,1.73Z"/><path class="cls-1" d="M111.25,97.16a3.17,3.17,0,0,1-.65,2.06,2.47,2.47,0,0,1-2,.8,2.62,2.62,0,0,1-2.23-1,4.28,4.28,0,0,1-.72-2.65h-3.33a6.72,6.72,0,0,0,1.71,4.92,6.31,6.31,0,0,0,4.72,1.74,5.41,5.41,0,0,0,5.89-5.92V82.06h-3.36Z"/><path class="cls-1" d="M129.92,87.41a9.28,9.28,0,0,0-8.34,0,7.12,7.12,0,0,0-2.84,2.89,9,9,0,0,0-1,4.42,9.11,9.11,0,0,0,1,4.45,7.12,7.12,0,0,0,2.84,2.89,8.46,8.46,0,0,0,4.17,1,8.82,8.82,0,0,0,3.69-.75,6.93,6.93,0,0,0,4-5.12h-3.6a3.53,3.53,0,0,1-1.43,2.28,4.73,4.73,0,0,1-2.84.85,4.54,4.54,0,0,1-3.22-1.21A5.11,5.11,0,0,1,121,95.42h12.5a8.56,8.56,0,0,0-.84-5.29A6.92,6.92,0,0,0,129.92,87.41ZM121,93.88a4.94,4.94,0,0,1,1.44-3.56,4.72,4.72,0,0,1,3.3-1.21,5.16,5.16,0,0,1,2.29.51,3.8,3.8,0,0,1,1.65,1.6,5,5,0,0,1,.54,2.66Z"/><polygon class="cls-1" points="153.34 99.78 149.22 86.63 145.68 86.63 141.61 99.78 138.52 86.63 135.13 86.63 139.64 102.88 143.32 102.88 147.39 90.32 151.4 102.88 155.11 102.88 159.62 86.63 156.44 86.63 153.34 99.78"/><path class="cls-1" d="M173.32,87.41a8.58,8.58,0,0,0-4.18-1,8.46,8.46,0,0,0-4.17,1,7.12,7.12,0,0,0-2.84,2.89,9,9,0,0,0-1,4.42,9.11,9.11,0,0,0,1,4.45,7.12,7.12,0,0,0,2.84,2.89,8.46,8.46,0,0,0,4.17,1,8.82,8.82,0,0,0,3.69-.75,6.93,6.93,0,0,0,4-5.12h-3.6a3.53,3.53,0,0,1-1.43,2.28,4.73,4.73,0,0,1-2.84.85,4.54,4.54,0,0,1-3.22-1.21,5.11,5.11,0,0,1-1.38-3.71h12.5a8.32,8.32,0,0,0-.84-5.29A7,7,0,0,0,173.32,87.41Zm-8.92,6.47a4.94,4.94,0,0,1,1.44-3.56,4.72,4.72,0,0,1,3.3-1.21,5.16,5.16,0,0,1,2.29.51,3.8,3.8,0,0,1,1.65,1.6,5,5,0,0,1,.54,2.66Z"/><rect class="cls-1" x="180.26" y="81.06" width="3.36" height="21.81"/><rect class="cls-1" x="187.69" y="81.06" width="3.36" height="21.81"/><path class="cls-1" d="M206.51,87.41a8.57,8.57,0,0,0-4.17-1,8.41,8.41,0,0,0-4.17,1,7.15,7.15,0,0,0-2.85,2.89,9,9,0,0,0-1,4.42,9.11,9.11,0,0,0,1,4.45,7.15,7.15,0,0,0,2.85,2.89,8.41,8.41,0,0,0,4.17,1,8.8,8.8,0,0,0,3.68-.75,6.89,6.89,0,0,0,2.68-2.08,7,7,0,0,0,1.36-3h-3.6A3.52,3.52,0,0,1,205,99.49a4.76,4.76,0,0,1-2.85.85A4.5,4.5,0,0,1,199,99.13a5.07,5.07,0,0,1-1.39-3.71h12.5a8.32,8.32,0,0,0-.84-5.29A6.9,6.9,0,0,0,206.51,87.41Zm-8.92,6.47A4.9,4.9,0,0,1,199,90.32a4.68,4.68,0,0,1,3.3-1.21,5.15,5.15,0,0,1,2.28.51,3.8,3.8,0,0,1,1.65,1.6,5,5,0,0,1,.55,2.66Z"/><path class="cls-1" d="M216.81,89.82V86.63h-3.36v16.24h3.36V94.65a4.31,4.31,0,0,1,1.34-3.55A5.51,5.51,0,0,1,221.7,90h1V86.37a6.68,6.68,0,0,0-3.54.93A6.23,6.23,0,0,0,216.81,89.82Z"/><polygon class="cls-1" points="236.5 86.63 231.99 98.57 227.13 86.63 223.35 86.63 230.19 102.49 226.69 110.6 230.43 110.6 240.25 86.63 236.5 86.63"/></g></g></svg>