<svg xmlns="http://www.w3.org/2000/svg" viewBox="0 0 20.23 18.65"><defs><style>.cls-1{fill:#6d542f;}</style></defs><title>Asset 8</title><g id="Layer_2" data-name="Layer 2"><g id="Layer_1-2" data-name="Layer 1"><path class="cls-1" d="M3.52,14.33a2.16,2.16,0,1,0,2.16,2.16A2.16,2.16,0,0,0,3.52,14.33Z"/><circle class="cls-1" cx="14.61" cy="16.49" r="2.16"/><path class="cls-1" d="M20.05.52A1.1,1.1,0,0,0,18.51.18L16.19,1.67a1.92,1.92,0,0,0-1.35-.55H2a2,2,0,0,0-2,2v8.38a2,2,0,0,0,2,2H13.82a2,2,0,0,0,2-1.74l1-7.74,3-1.92A1.1,1.1,0,0,0,20.05.52Zm-6.46,10.7H2.24V3.36H14.55Z"/></g></g></svg>