<svg xmlns="http://www.w3.org/2000/svg" viewBox="0 0 44.9 52.26"><defs><style>.cls-1{fill:#1a1803;}</style></defs><g id="Layer_2" data-name="Layer 2"><g id="Layer_1-2" data-name="Layer 1"><path class="cls-1" d="M42.41,0H2.49a2.48,2.48,0,0,0-2,4L15.94,24.16V50.39a1.87,1.87,0,0,0,2.49,1.76l8.36-3A3.25,3.25,0,0,0,29,46.12v-22L44.38,4A2.48,2.48,0,0,0,42.41,0ZM29,16.81,24.51,22.6V45.27l-4.12,1.45V22.64l-4.45-5.83L6.48,4.45h32Z"/><rect class="cls-1" x="32.97" y="24.78" width="11.93" height="4.45"/><rect class="cls-1" x="32.97" y="33.12" width="7.97" height="4.45"/><rect class="cls-1" x="32.97" y="41.46" width="4.45" height="4.45"/></g></g></svg>