<svg xmlns="http://www.w3.org/2000/svg" viewBox="0 0 56.45 40.88"><defs><style>.cls-1{fill:#fcc927;}.cls-2{fill:#3a81d6;}</style></defs><g id="Layer_2" data-name="Layer 2"><g id="Layer_1-2" data-name="Layer 1"><path class="cls-1" d="M15,36v4.87H9.66V36.05C3.52,35.38,0,32.13,0,26.67H6.23c0,2.79,2.12,4.33,6.22,4.33,3.7,0,5.82-1.26,5.82-3.61C18.27,20.3.63,25.86.63,13.54c0-4.56,3.52-7.85,9-8.71V0H15V4.83c5.64.72,9.07,4.06,9.07,9.25H17.82c0-2.94-2-4.24-5.5-4.24-3.75,0-5.46,1.26-5.46,3.56,0,6.77,17.6,1.22,17.6,14C24.46,32.08,20.76,35.24,15,36Z"/><polygon class="cls-2" points="50.54 24.95 50.54 6.64 43.71 6.64 43.71 24.95 37.8 24.95 47.13 34.24 56.45 24.95 50.54 24.95"/></g></g></svg>