<svg xmlns="http://www.w3.org/2000/svg" viewBox="0 0 20 19.9"><defs><style>.cls-1{fill:#6d542f;}</style></defs><title>Asset 9</title><g id="Layer_2" data-name="Layer 2"><g id="Layer_1-2" data-name="Layer 1"><path class="cls-1" d="M17.41,6H15V5A5,5,0,0,0,5,5V6H2.6A2.61,2.61,0,0,0,0,8.62v6.74A4.54,4.54,0,0,0,4.54,19.9H15.46A4.54,4.54,0,0,0,20,15.36V8.62A2.6,2.6,0,0,0,17.41,6ZM6.92,5a3.08,3.08,0,1,1,6.16,0V6H6.92ZM18.05,15.36A2.59,2.59,0,0,1,15.46,18H4.54A2.59,2.59,0,0,1,2,15.36V8.62A.66.66,0,0,1,2.6,8H17.41a.65.65,0,0,1,.64.65Z"/><path class="cls-1" d="M12.18,11.14a3,3,0,0,1-2.18.91A3.1,3.1,0,0,1,7.09,10h-2a5,5,0,0,0,9.86,0h-2A3.05,3.05,0,0,1,12.18,11.14Z"/></g></g></svg>