<svg xmlns="http://www.w3.org/2000/svg" viewBox="0 0 52.66 50.43"><defs><style>.cls-1{fill:#fcc927;}</style></defs><g id="Layer_2" data-name="Layer 2"><g id="Layer_1-2" data-name="Layer 1"><path class="cls-1" d="M29.47,2l5.43,11a3.49,3.49,0,0,0,2.63,1.92l12.13,1.76a3.5,3.5,0,0,1,1.94,6l-8.77,8.55a3.5,3.5,0,0,0-1,3.1l2.07,12.08A3.5,3.5,0,0,1,38.81,50L28,44.32a3.48,3.48,0,0,0-3.26,0L13.86,50a3.51,3.51,0,0,1-5.09-3.69l2.07-12.08a3.49,3.49,0,0,0-1-3.1L1.06,22.6a3.51,3.51,0,0,1,1.94-6l12.13-1.76a3.51,3.51,0,0,0,2.64-1.92L23.19,2A3.5,3.5,0,0,1,29.47,2Z"/></g></g></svg>