<svg xmlns="http://www.w3.org/2000/svg" viewBox="0 0 16.69 17.1"><defs><style>.cls-1{fill:#6d542f;}</style></defs><title>Asset 11</title><g id="Layer_2" data-name="Layer 2"><g id="Layer_1-2" data-name="Layer 1"><path class="cls-1" d="M16.64,15.85A12.57,12.57,0,0,0,11.9,9.78a5.55,5.55,0,1,0-7.11,0A12.5,12.5,0,0,0,.05,15.85a1,1,0,0,0,.59,1.2A.87.87,0,0,0,1,17.1a1,1,0,0,0,.9-.64c0-.05,1.45-4.18,5-5.59a5.59,5.59,0,0,0,1.49.21,5.72,5.72,0,0,0,1.5-.21c3.51,1.4,5,5.51,5,5.59a1,1,0,0,0,.9.64.79.79,0,0,0,.3-.05A1,1,0,0,0,16.64,15.85ZM4.7,5.54A3.64,3.64,0,1,1,8.34,9.18,3.65,3.65,0,0,1,4.7,5.54Z"/></g></g></svg>