<svg xmlns="http://www.w3.org/2000/svg" viewBox="0 0 50.4 52.15"><defs><style>.cls-1{fill:#1a1803;}</style></defs><g id="Layer_2" data-name="Layer 2"><g id="Layer_1-2" data-name="Layer 1"><path class="cls-1" d="M36.82,18.69V11.62a11.62,11.62,0,0,0-23.24,0v7.07H0L1.76,41.43a11.43,11.43,0,0,0,11.4,10.72H37.24a11.42,11.42,0,0,0,11.4-10.72L50,23.69l.39-5Zm-18.88,5H32.46V26.4a7.26,7.26,0,1,1-14.52,0Zm0-12.07a7.26,7.26,0,0,1,14.52,0v7.07H17.94ZM43.65,41v.08a6.43,6.43,0,0,1-6.41,6H13.16a6.42,6.42,0,0,1-6.4-6V41L5.4,23.69h8.18V26.4a11.62,11.62,0,1,0,23.24,0V23.69H45Z"/></g></g></svg>