<svg xmlns="http://www.w3.org/2000/svg" xmlns:xlink="http://www.w3.org/1999/xlink" viewBox="0 0 74.25 74.25"><defs><style>.cls-1{fill:#fff0f4;}.cls-2{fill:url(#linear-gradient);}.cls-3{fill:url(#linear-gradient-2);}.cls-4{fill:url(#linear-gradient-3);}</style><linearGradient id="linear-gradient" x1="13.37" y1="37.13" x2="22.22" y2="37.13" gradientUnits="userSpaceOnUse"><stop offset="0" stop-color="#dc0563"/><stop offset="1" stop-color="#b41254"/></linearGradient><linearGradient id="linear-gradient-2" x1="32.7" y1="37.13" x2="41.55" y2="37.13" xlink:href="#linear-gradient"/><linearGradient id="linear-gradient-3" x1="52.03" y1="37.13" x2="60.88" y2="37.13" xlink:href="#linear-gradient"/></defs><g id="Layer_2" data-name="Layer 2"><g id="Layer_1-2" data-name="Layer 1"><circle class="cls-1" cx="37.13" cy="37.13" r="37.13"/><path class="cls-2" d="M17.8,32.7a4.43,4.43,0,1,0,4.42,4.43A4.43,4.43,0,0,0,17.8,32.7Z"/><path class="cls-3" d="M37.13,32.7a4.43,4.43,0,1,0,4.42,4.43A4.43,4.43,0,0,0,37.13,32.7Z"/><path class="cls-4" d="M56.46,32.7a4.43,4.43,0,1,0,4.42,4.43A4.43,4.43,0,0,0,56.46,32.7Z"/></g></g></svg>