<svg xmlns="http://www.w3.org/2000/svg" viewBox="0 0 32.99 40.5"><defs><style>.cls-1{fill:#ff5f06;}</style></defs><title>Asset 112</title><g id="Layer_2" data-name="Layer 2"><g id="Layer_1-2" data-name="Layer 1"><path class="cls-1" d="M29,22.66C30.56,5.84,13.67,0,13.67,0,16.47,5.31,10,13.81,10,13.81L6.21,11.15s-4.2,2.48-6,12,6.47,19.18,19.7,17C32.77,38.06,33,22.48,33,22.48ZM16.5,37.18A14.24,14.24,0,0,1,9.75,20.25a6.43,6.43,0,0,1,3.92,1.22s2.72-5.31,6.49-7.08c0,0-1.11,7.08,1.77,11.39a4.36,4.36,0,0,0,3.76,0S26.34,34.3,16.5,37.18Z"/></g></g></svg>