<svg xmlns="http://www.w3.org/2000/svg" viewBox="0 0 386.6 359.12"><defs><style>.cls-1{fill:#c9c9c9;}</style></defs><title>Asset 11</title><g id="Layer_2" data-name="Layer 2"><g id="Layer_1-2" data-name="Layer 1"><circle class="cls-1" cx="165.78" cy="204.54" r="55.61" transform="translate(-96.07 177.13) rotate(-45)"/><path class="cls-1" d="M353.34,100.29H278.53V55.88A55.81,55.81,0,0,0,222.74,0H163.87a55.81,55.81,0,0,0-55.79,55.88v44.41H33.27A33.29,33.29,0,0,0,.41,138.79L29.19,318.06a48.6,48.6,0,0,0,48,41.05H309.39a48.6,48.6,0,0,0,48-41.05l28.75-179.28A33.27,33.27,0,0,0,353.34,100.29Zm-218-44.41A28.55,28.55,0,0,1,163.87,27.3h58.87a28.55,28.55,0,0,1,28.48,28.57v44.41H135.39Zm154,272.25a13.49,13.49,0,0,1-19.08,0l-47.56-47.56a5.49,5.49,0,0,1,0-7.77l.87-.87L212,260.37a72.5,72.5,0,1,1,9.57-9.57l11.56,11.56.87-.87a5.49,5.49,0,0,1,7.77,0L289.37,309A13.49,13.49,0,0,1,289.37,328.13Z"/></g></g></svg>