<svg xmlns="http://www.w3.org/2000/svg" viewBox="0 0 44.22 44.22"><defs><style>.cls-1{fill:#6b6b6b;}</style></defs><title>Asset 18</title><g id="Layer_2" data-name="Layer 2"><g id="Layer_1-2" data-name="Layer 1"><path class="cls-1" d="M22.11,0A22.11,22.11,0,1,0,44.22,22.11,22.11,22.11,0,0,0,22.11,0Zm0,40.22A18.11,18.11,0,1,1,40.22,22.11,18.13,18.13,0,0,1,22.11,40.22Z"/><path class="cls-1" d="M24,22.87a2,2,0,0,0,.06-.2c0-.06,0-.11.05-.17a2,2,0,0,0,0-.39V9.75a2,2,0,0,0-4,0V21.28l-5.31,5.3a2,2,0,1,0,2.83,2.83l5.89-5.89a2,2,0,0,0,.25-.31s.05-.1.08-.15A2,2,0,0,0,24,22.87Z"/></g></g></svg>