<svg xmlns="http://www.w3.org/2000/svg" viewBox="0 0 125.95 125.95"><defs><style>.cls-1{fill:#eaeaea;}.cls-2{fill:#fff;}</style></defs><g id="Layer_2" data-name="Layer 2"><g id="Layer_1-2" data-name="Layer 1"><rect class="cls-1" width="125.95" height="125.95"/><path class="cls-2" d="M87.7,45.94H73.56v-1.2a1.92,1.92,0,0,0-1.93-1.93H54.32a1.93,1.93,0,0,0-1.94,1.93v1.2H38.25a4.83,4.83,0,0,0-4.83,4.83V78.31a4.83,4.83,0,0,0,4.83,4.83H87.7a4.83,4.83,0,0,0,4.83-4.83V50.77A4.83,4.83,0,0,0,87.7,45.94Zm-38.91,9a1.33,1.33,0,0,1-1.33,1.33H41.2a1.34,1.34,0,0,1-1.34-1.33V52.87a1.34,1.34,0,0,1,1.34-1.34h6.26a1.33,1.33,0,0,1,1.33,1.34ZM63,77.54a13,13,0,1,1,13-13A13,13,0,0,1,63,77.54Z"/><path class="cls-2" d="M70.43,61.48a4.4,4.4,0,0,1-4.23-5.61,9.24,9.24,0,1,0,5.44,5.44A4.37,4.37,0,0,1,70.43,61.48Z"/></g></g></svg>