<svg xmlns="http://www.w3.org/2000/svg" viewBox="0 0 26.21 41.38"><defs><style>.cls-1{fill:#fff;}</style></defs><title>Asset 79</title><g id="Layer_2" data-name="Layer 2"><g id="Layer_1-2" data-name="Layer 1"><path class="cls-1" d="M15.74,18.39V9.19c2.7.55,4.29,2.13,4.5,4.66l5.5.07c-.24-5.72-3.58-9.22-10-9.87V2.64a2.64,2.64,0,1,0-5.27,0V4.13C4.35,5,.87,8.48.87,13.18c0,6.34,4.77,8.21,9.6,9.41v9.65c-3.39-.52-4.77-2.15-5-4.71L0,27.46c.12,5.72,3.27,9.22,10.47,9.87v1.41a2.64,2.64,0,1,0,5.27,0V37.31C22.5,36.58,26.21,33,26.21,28.2,26.21,21.27,20.84,19.55,15.74,18.39ZM10.47,17.1c-2.22-.74-3.77-1.8-3.77-3.92,0-2,1.23-3.37,3.77-3.94Zm5.27,15.13V23.88c2.68.79,4.64,1.9,4.64,4.32C20.38,30.2,19,31.73,15.74,32.23Z"/></g></g></svg>