<svg xmlns="http://www.w3.org/2000/svg" viewBox="0 0 73.49 44.94"><defs><style>.cls-1,.cls-2{fill:#0e72c4;}.cls-1{stroke:#212121;stroke-miterlimit:10;stroke-width:3px;}.cls-3{fill:#004f84;}.cls-4{fill:#777;}</style></defs><title>Asset 71</title><g id="Layer_2" data-name="Layer 2"><g id="Layer_1-2" data-name="Layer 1"><ellipse class="cls-1" cx="17.23" cy="37.95" rx="5.12" ry="5.49"/><ellipse class="cls-1" cx="52.71" cy="37.95" rx="5.12" ry="5.49"/><path class="cls-2" d="M0,33.58A4.23,4.23,0,0,0,4.08,38H9c0-4.83,3.67-8.76,8.18-8.76s8.18,3.93,8.18,8.76H40.87V26.33H0Z"/><path class="cls-2" d="M73.44,32.83a3.38,3.38,0,0,0,0-1.26l-2.49-11c-.2-.88-.73-1.47-1.33-1.47H63c-.78,0-1.41,1-1.41,2.21l0,10h-.65V37.9l9.19,0a3.4,3.4,0,0,0,3.42-3.4h0Z"/><rect class="cls-3" x="3.19" y="12.74" width="14.04" height="12.74" rx="2.24" ry="2.24"/><rect class="cls-3" x="23.58" y="12.74" width="14.04" height="12.74" rx="1.55" ry="1.55"/><rect class="cls-3" x="13.42" width="14.04" height="12.74" rx="2.16" ry="2.16"/><path class="cls-2" d="M64.17,17.6C59.32,8.72,52.5,7.13,52.5,7.13h-9V38h1c0-4.83,3.67-8.76,8.18-8.76s8.16,3.91,8.18,8.72a4.25,4.25,0,0,0,3.65-4.32V19.11A3.17,3.17,0,0,0,64.17,17.6Zm-4.86,2.9h-12a1.07,1.07,0,0,1-1-1.1V11.89a1.06,1.06,0,0,1,1-1.1,14.38,14.38,0,0,1,12.89,8.08A1.1,1.1,0,0,1,59.31,20.5Z"/><path class="cls-4" d="M43.51,7.13s-4.16.43-4.16,4.43V38h4.16Z"/></g></g></svg>