<svg xmlns="http://www.w3.org/2000/svg" viewBox="0 0 52.91 60.01"><defs><style>.cls-1,.cls-4{fill:#ffd400;}.cls-1,.cls-2,.cls-3,.cls-4{stroke:#aa6500;stroke-miterlimit:10;}.cls-1,.cls-3{stroke-width:3px;}.cls-2{fill:#f9e27d;}.cls-3{fill:none;}</style></defs><title>Asset 70</title><g id="Layer_2" data-name="Layer 2"><g id="Layer_1-2" data-name="Layer 1"><path class="cls-1" d="M16.15,1.5h27a3.94,3.94,0,0,1,3.82,4v49a3.94,3.94,0,0,1-3.82,4H5.32a3.94,3.94,0,0,1-3.82-4V16.82Z"/><path class="cls-1" d="M16.21,1.93V12.65a4.14,4.14,0,0,1-4,4.23H2.13A.2.2,0,0,1,2,16.53L15.88,1.79A.19.19,0,0,1,16.21,1.93Z"/><ellipse class="cls-2" cx="33.21" cy="20.58" rx="11.8" ry="12.42"/><line class="cls-3" x1="7.48" y1="44.56" x2="41.02" y2="44.56"/><line class="cls-3" x1="7.48" y1="39.07" x2="41.02" y2="39.07"/><line class="cls-3" x1="7.48" y1="33.58" x2="41.02" y2="33.58"/><line class="cls-3" x1="23.81" y1="28.09" x2="7.48" y2="28.09"/><line class="cls-3" x1="21.56" y1="22.61" x2="7.48" y2="22.61"/><line class="cls-3" x1="7.48" y1="50.04" x2="41.02" y2="50.04"/><path class="cls-4" d="M26.06,16.81a.48.48,0,0,0-.44.84,23,23,0,0,1,5.43,5.25,24.21,24.21,0,0,1,3.53,6.87.45.45,0,0,0,.86,0C36.66,26.39,40.78,17.6,52.14,12a.47.47,0,0,0-.31-.89c-.7.22-1.41.48-2.14.78a32.41,32.41,0,0,0-14,11.54.44.44,0,0,1-.71,0,25.28,25.28,0,0,0-4-3.77A24.6,24.6,0,0,0,26.06,16.81Z"/></g></g></svg>