<svg xmlns="http://www.w3.org/2000/svg" viewBox="0 0 60.83 59.73"><defs><style>.cls-1{fill:#aaa;}.cls-2{fill:#fff;}.cls-3{fill:#777;}</style></defs><title>Asset 72</title><g id="Layer_2" data-name="Layer 2"><g id="Layer_1-2" data-name="Layer 1"><rect class="cls-1" x="15.39" y="-3.79" width="2.79" height="67.3" rx="1.17" ry="1.17" transform="translate(16.19 -4.39) rotate(28.34)"/><path class="cls-2" d="M29.5,9.24"/><path d="M32.71,11.91l1.85-6.2a14.9,14.9,0,0,0-3.17,0l-2.95,5.46a6.44,6.44,0,0,1,3.68.56Z"/><path d="M51,25.61a11.8,11.8,0,0,0,5,.39l-.32.6h.05l-.12.21A35.56,35.56,0,0,1,60.83,20s-5,1.72-9.49-.64a12.74,12.74,0,0,0,1.18.57Z"/><path d="M40.17,16.12l0,0,.1.13a17.83,17.83,0,0,1,2.36,2.9c.23.36.47.67.71,1a21.78,21.78,0,0,0,2.35,2.56l3.81-4.52.26.19a12.08,12.08,0,0,1-3.44-4.54A15,15,0,0,0,44.68,11l-4.51,5.1Z"/><path d="M30.85,17.7c-.7-.19-4.25-1.09-5.55-.68l-3,5.53a16.35,16.35,0,0,1,7,.77L31,17.75Z"/><path d="M53.18,31.58s-1.18.5-3.77-.18h0l-1.64,6a13.63,13.63,0,0,0,4-.6,24.85,24.85,0,0,1,1.91-6.44C53.47,30.82,53.3,31.24,53.18,31.58Z"/><path d="M39.7,24.6a17.43,17.43,0,0,0-3.52-4l-3.73,4.21a13.5,13.5,0,0,1,4.83,5.77,14.25,14.25,0,0,0,.67,1.28l3.89-4.61A18.08,18.08,0,0,1,39.7,24.6Z"/><path class="cls-2" d="M40.17,16.12,44.68,11A14,14,0,0,0,34.56,5.71l-1.85,6.2A16.57,16.57,0,0,1,40.17,16.12Z"/><path class="cls-2" d="M31,17.75l-1.66,5.58a13.56,13.56,0,0,1,3.14,1.52l3.73-4.21A16.48,16.48,0,0,0,31,17.75Z"/><path class="cls-2" d="M41.83,27.3l-3.89,4.61a11.39,11.39,0,0,0,2.87,3.33l.34.25a13,13,0,0,0,1.15.71l.07,0a11.47,11.47,0,0,0,5.39,1.19l1.64-6A13.59,13.59,0,0,1,41.83,27.3Z"/><path class="cls-2" d="M45.71,22.69h0A13.53,13.53,0,0,0,51,25.61l1.54-5.67a12.74,12.74,0,0,1-1.18-.57l-.44-.25A7.62,7.62,0,0,1,50,18.5l-.19-.14-.26-.19Z"/><path class="cls-3" d="M28.26,11.38l-2.95,5.47h.08l2.87-5.46Z"/><path class="cls-3" d="M36.19,20.63l4-4.51h0l-4,4.52a17.43,17.43,0,0,1,3.52,4,18.08,18.08,0,0,0,2.13,2.69l0,0S37.92,21.33,36.19,20.63Z"/><path class="cls-3" d="M42.65,19.13a17.83,17.83,0,0,0-2.36-2.9c.36.47,1.74,2.28,3.07,3.89C43.12,19.8,42.88,19.49,42.65,19.13Z"/><path class="cls-3" d="M51,25.62s3.38,1.31,4.65,1l.32-.6a11.8,11.8,0,0,1-5-.39L49.41,31.4h0Z"/><path class="cls-3" d="M30.85,17.7l.13,0h0Z"/><path class="cls-3" d="M32.71,11.91l-.59-.15a6.07,6.07,0,0,1,.55.28Z"/><path d="M32.71,11.91l0,.13h0L31,17.74h0a16.48,16.48,0,0,1,5.2,2.89l4-4.52A16.57,16.57,0,0,0,32.71,11.91Z"/><path d="M45.71,22.7l-3.86,4.58h0l0,0a13.59,13.59,0,0,0,7.58,4.1L51,25.61A13.53,13.53,0,0,1,45.71,22.7Z"/><path class="cls-2" d="M45.71,22.69a21.78,21.78,0,0,1-2.35-2.56A16.74,16.74,0,0,0,45.7,22.7Z"/><path class="cls-2" d="M40.19,16.1l0,0,.12.11Z"/><polygon class="cls-2" points="45.71 22.7 45.72 22.69 45.71 22.69 45.7 22.7 45.71 22.7"/><path class="cls-2" d="M41.85,27.27,45.7,22.7a16.74,16.74,0,0,1-2.34-2.57c-1.34-1.62-2.71-3.42-3.07-3.89l-.12-.11-4,4.51C37.92,21.33,41.84,27.25,41.85,27.27Z"/><polygon class="cls-2" points="41.85 27.27 41.85 27.28 45.71 22.7 45.7 22.7 41.85 27.27"/><path class="cls-2" d="M54.41,28.85q-.38.75-.73,1.54c.64-1.38,1.56-3,1.88-3.59-.2.33-.39.66-.58,1Z"/><path class="cls-2" d="M53,31.46a10.94,10.94,0,0,1-3.59-.07c2.59.68,3.77.18,3.77.18.12-.34.3-.76.5-1.2s.48-1,.73-1.54Z"/><path class="cls-2" d="M55.62,26.6,55,27.8c.19-.34.38-.68.58-1l.12-.21Z"/><path class="cls-2" d="M54.41,28.85l.56-1C54.78,28.14,54.59,28.49,54.41,28.85Z"/><path class="cls-2" d="M54.41,28.85c.18-.36.37-.7.56-1l.65-1.2c-1.27.33-4.65-1-4.65-1L49.41,31.4h0a10.94,10.94,0,0,0,3.59.07Z"/><path class="cls-2" d="M28.44,11.21l-.1,0-.08.14h.09Z"/><polygon class="cls-2" points="25.4 16.84 25.3 17.02 25.4 16.84 25.4 16.84"/><path class="cls-2" d="M25.4,16.84l-.1.18c1.29-.41,4.84.49,5.55.68A16.15,16.15,0,0,0,25.4,16.84Z"/><path class="cls-2" d="M32.12,11.77a6.44,6.44,0,0,0-3.68-.56l-.09.16A15.22,15.22,0,0,1,32.12,11.77Z"/><path class="cls-2" d="M28.35,11.37h-.09L25.4,16.84h0Z"/><path class="cls-2" d="M32.67,12a6.07,6.07,0,0,0-.55-.28,15.22,15.22,0,0,0-3.77-.4L25.4,16.84a16.15,16.15,0,0,1,5.45.87l.13,0Z"/><polygon class="cls-2" points="30.98 17.74 32.67 12.05 32.67 12.05 30.98 17.74 30.98 17.74"/></g></g></svg>