<svg xmlns="http://www.w3.org/2000/svg" viewBox="0 0 54.6 50.3"><defs><style>.cls-1{fill:#004fff;}</style></defs><title>Asset 73</title><g id="Layer_2" data-name="Layer 2"><g id="Layer_1-2" data-name="Layer 1"><path class="cls-1" d="M33.9,27.71A6.49,6.49,0,1,0,40.26,33a43.85,43.85,0,0,0-2.73,3.54c-.63.88-1.26,1.81-1.94,1.72-.45-.06-.68-.55-1-1.11A11.13,11.13,0,0,0,32,34.36c-2.8-2-3.31-2.57-3.24-2.68s2.22.76,3.69,1.77l3.06,2.1a40,40,0,0,1,4.15-4.1l.06,0A6.47,6.47,0,0,0,33.9,27.71Z"/><path class="cls-1" d="M50.09,17.13H44.43a17.13,17.13,0,0,0-34.26,0H4.51A4.51,4.51,0,0,0,.22,23L8.07,47.18a4.51,4.51,0,0,0,4.29,3.11H42.24a4.5,4.5,0,0,0,4.29-3.11L54.37,23A4.51,4.51,0,0,0,50.09,17.13ZM27.3,3.69A13.44,13.44,0,0,1,40.73,17.13H13.86A13.44,13.44,0,0,1,27.3,3.69ZM41.67,31.44a8.24,8.24,0,0,1-14.54,7.45H15.27a.82.82,0,1,1,0-1.65h11A8.19,8.19,0,0,1,25.7,35H12.5a.82.82,0,1,1,0-1.65H25.7a8.19,8.19,0,0,1,.55-2.24H9.13a.82.82,0,1,1,0-1.65h18a8.24,8.24,0,0,1,14,.77,40.15,40.15,0,0,1,4.44-3Z"/></g></g></svg>