<svg xmlns="http://www.w3.org/2000/svg" viewBox="0 0 50.12 57.48"><defs><style>.cls-1{fill:#ff0068;}.cls-2{fill:aqua;}</style></defs><title>Asset 74</title><g id="Layer_2" data-name="Layer 2"><g id="Layer_1-2" data-name="Layer 1"><polygon class="cls-1" points="1.62 13.53 25.06 27.06 48.49 13.53 25.06 0 1.62 13.53"/><polygon class="cls-1" points="0 17.07 0 44.01 23.33 57.48 23.33 30.54 0 17.07"/><polygon class="cls-1" points="50.12 17.07 50.12 44.01 26.78 57.48 26.78 30.54 50.12 17.07"/><polygon class="cls-2" points="6.8 47.94 6.8 21 6.8 18.65 32.21 4.13 40.18 8.73 14.43 23.09 14.43 52.23 6.8 47.94"/><polygon class="cls-2" points="42.74 47.94 42.74 21 42.74 18.65 17.33 4.13 9.36 8.73 35.11 23.09 35.11 52.23 42.74 47.94"/></g></g></svg>