<svg xmlns="http://www.w3.org/2000/svg" viewBox="0 0 121.05 40.78"><defs><style>.cls-1{fill:#1a2a1d;}.cls-2{fill:#ef4923;}</style></defs><g id="Layer_2" data-name="Layer 2"><g id="Layer_1-2" data-name="Layer 1"><path class="cls-1" d="M58.86,12.28a1.83,1.83,0,0,1-.88.23,2.26,2.26,0,0,1-1.78-1l-2.66-3v7.42a2.26,2.26,0,0,1-.19.94,2.31,2.31,0,0,1-.51.76,2.44,2.44,0,0,1-1.72.68,2.41,2.41,0,0,1-.93-.18,2.49,2.49,0,0,1-.77-.5,2.31,2.31,0,0,1-.51-.76,2.26,2.26,0,0,1-.19-.94V2.37a2.24,2.24,0,0,1,.19-.93,2.38,2.38,0,0,1,.51-.75,2.49,2.49,0,0,1,.77-.5,2.34,2.34,0,0,1,1-.19,2.46,2.46,0,0,1,1.71.69L58,6.5,63.16.69A2.73,2.73,0,0,1,64,.17a2.61,2.61,0,0,1,.9-.17,2.42,2.42,0,0,1,.94.18,2.19,2.19,0,0,1,.76.5,2.24,2.24,0,0,1,.52.76,2.41,2.41,0,0,1,.19.93V15.92a2.43,2.43,0,0,1-.19.94,2.37,2.37,0,0,1-1.28,1.26,2.52,2.52,0,0,1-1.87,0,2.34,2.34,0,0,1-.76-.5,2.48,2.48,0,0,1-.51-.76,2.26,2.26,0,0,1-.2-.94V8.52l-2.9,3.26A2.72,2.72,0,0,1,58.86,12.28Z"/><path class="cls-1" d="M74.59,12.58a1.67,1.67,0,0,0,.55,1.24,1.85,1.85,0,0,0,1.33.47,1.77,1.77,0,0,0,.73-.15,2,2,0,0,0,.59-.43,2.05,2.05,0,0,0,.52-1.36v-5a2.29,2.29,0,0,1,.74-1.68A2.46,2.46,0,0,1,80.77,5a2.36,2.36,0,0,1,1.66.7,2.15,2.15,0,0,1,.5.75,2.41,2.41,0,0,1,.18.93v4.4a6.6,6.6,0,0,1-.32,2,6.81,6.81,0,0,1-.89,1.79A6.54,6.54,0,0,1,80.55,17a6.75,6.75,0,0,1-1.74,1V20.7a2.3,2.3,0,0,1-.19.95,2.25,2.25,0,0,1-.51.77,2.72,2.72,0,0,1-.77.51,2.36,2.36,0,0,1-.92.18,2.47,2.47,0,0,1-1-.18,2.67,2.67,0,0,1-.76-.51,2.43,2.43,0,0,1-.52-.77A2.47,2.47,0,0,1,74,20.7V18a6.65,6.65,0,0,1-3.92-4.18,6.47,6.47,0,0,1-.31-2V7.38A2.24,2.24,0,0,1,70,6.45a2.49,2.49,0,0,1,.51-.75,2.31,2.31,0,0,1,.76-.51,2.35,2.35,0,0,1,1.85,0,2.29,2.29,0,0,1,.78.51,2.37,2.37,0,0,1,.53.75,2.24,2.24,0,0,1,.19.93Z"/><path class="cls-1" d="M53.54,29.54l6.21-6.68a2.37,2.37,0,0,1,.77-.5,2.3,2.3,0,0,1,.85-.17,2.45,2.45,0,0,1,.87.17,2.4,2.4,0,0,1,.77.49,2.46,2.46,0,0,1,.55.73,2.06,2.06,0,0,1,.21.94,2.6,2.6,0,0,1-.2,1,2.39,2.39,0,0,1-.61.85l-4,4.07,4.81,6.09a2.26,2.26,0,0,1,.68,1.69,2.1,2.1,0,0,1-.2.93,2.58,2.58,0,0,1-.53.77,2.22,2.22,0,0,1-.75.53,2,2,0,0,1-.87.2,2.21,2.21,0,0,1-1.63-.73L55.6,33.72l-2.06,2.13v2.39a2.29,2.29,0,0,1-.19.94,2.17,2.17,0,0,1-.51.75,2.33,2.33,0,0,1-.77.5,2.51,2.51,0,0,1-1,.18,2.41,2.41,0,0,1-.93-.18,2.33,2.33,0,0,1-.77-.5,2.17,2.17,0,0,1-.51-.75,2.29,2.29,0,0,1-.19-.94V24.69a2.29,2.29,0,0,1,.19-.94,2.31,2.31,0,0,1,1.28-1.25,2.41,2.41,0,0,1,.93-.18,2.51,2.51,0,0,1,1,.18,2.31,2.31,0,0,1,1.28,1.25,2.29,2.29,0,0,1,.19.94Z"/><path class="cls-1" d="M78.27,31.32a6.81,6.81,0,0,0-3.62-3.64A6.73,6.73,0,0,0,72,27.15a6.66,6.66,0,0,0-2.64.53,6.94,6.94,0,0,0-3.64,3.64A6.58,6.58,0,0,0,65.19,34a6.48,6.48,0,0,0,.54,2.63,6.94,6.94,0,0,0,3.64,3.64,6.49,6.49,0,0,0,2.64.54,4.87,4.87,0,0,0,1.42-.2A5.56,5.56,0,0,0,74.76,40a2.07,2.07,0,0,0,.71.44,2.21,2.21,0,0,0,.87.16,2.38,2.38,0,0,0,1-.19,2.67,2.67,0,0,0,.79-.53,2.55,2.55,0,0,0,.53-.79,2.34,2.34,0,0,0,.19-1V34A6.58,6.58,0,0,0,78.27,31.32ZM72,36.6A2.64,2.64,0,1,1,74.63,34,2.64,2.64,0,0,1,72,36.6Z"/><path class="cls-1" d="M93.84,31.32a6.9,6.9,0,0,0-3.62-3.64,6.78,6.78,0,0,0-2.65-.53,5.81,5.81,0,0,0-1,.08,6.09,6.09,0,0,0-1,.23V24.69a2.72,2.72,0,0,0-.18-1,2.47,2.47,0,0,0-.5-.79,2.28,2.28,0,0,0-1.71-.72,2.26,2.26,0,0,0-.94.19,2.37,2.37,0,0,0-1.29,1.32,2.72,2.72,0,0,0-.19,1V34a6.41,6.41,0,0,0,.55,2.64,6.94,6.94,0,0,0,1.47,2.17,7,7,0,0,0,2.16,1.47,6.87,6.87,0,0,0,5.29,0,6.9,6.9,0,0,0,3.62-3.64,6.75,6.75,0,0,0,0-5.29ZM87.56,36.6A2.64,2.64,0,1,1,90.19,34,2.64,2.64,0,0,1,87.56,36.6Z"/><path class="cls-1" d="M109.25,31.32a6.9,6.9,0,0,0-3.62-3.64,6.87,6.87,0,0,0-5.29,0,7,7,0,0,0-2.16,1.47,6.94,6.94,0,0,0-1.47,2.17A6.42,6.42,0,0,0,96.16,34a6.33,6.33,0,0,0,.55,2.63,6.94,6.94,0,0,0,1.47,2.17,7,7,0,0,0,2.16,1.47,6.56,6.56,0,0,0,2.64.54,4.83,4.83,0,0,0,1.42-.2,5.63,5.63,0,0,0,1.34-.57,2,2,0,0,0,.7.44,2.28,2.28,0,0,0,.87.16,2.43,2.43,0,0,0,1-.19,2.5,2.5,0,0,0,.78-.53,2.39,2.39,0,0,0,.53-.79,2.34,2.34,0,0,0,.19-1V34A6.57,6.57,0,0,0,109.25,31.32ZM103,36.6A2.64,2.64,0,1,1,105.6,34,2.64,2.64,0,0,1,103,36.6Z"/><path class="cls-1" d="M116,39.18a2.49,2.49,0,0,1-.51.75,2.34,2.34,0,0,1-1.67.68,2.5,2.5,0,0,1-.94-.18,2.23,2.23,0,0,1-.77-.5,2.37,2.37,0,0,1-.53-.75,2.18,2.18,0,0,1-.2-.93v-4a6.92,6.92,0,0,1,.63-2.65,7.23,7.23,0,0,1,1.51-2.17,7.67,7.67,0,0,1,2.18-1.49,7,7,0,0,1,2.64-.6h.27a2.94,2.94,0,0,1,1,.2,2.17,2.17,0,0,1,.75.51,2.1,2.1,0,0,1,.48.75,2.52,2.52,0,0,1,.17.93,2.25,2.25,0,0,1-.2.93,2.38,2.38,0,0,1-.52.77,2.25,2.25,0,0,1-.77.51,2.51,2.51,0,0,1-.94.2,2.36,2.36,0,0,0-.92.18,2.21,2.21,0,0,0-.76.49,2.16,2.16,0,0,0-.52.73,2.09,2.09,0,0,0-.22.89v3.84A2.34,2.34,0,0,1,116,39.18Z"/><path class="cls-2" d="M1.71,30.08s-3.3-7.17,10.41-8.14c13-.91,24.85,1.69,28.58.28a.43.43,0,0,0,.14-.71c-1.34-1.24-6.5-4.75-22-4.52C.11,17.28-1,24.9,1.71,30.08Z"/><path class="cls-2" d="M8.59,38.27S3.93,35,5.06,31s10.92-5,16.5-4.5c5.17.48,12.34,1.25,15.85,4.12a.43.43,0,0,1-.25.76,85.58,85.58,0,0,1-10.71-.55c-7.17-.8-16,0-18.43,1.5S6.14,35.82,8.59,38.27Z"/><path class="cls-2" d="M13,39.69s-2.9-1.59-.74-3.7,10.92-1.76,14.56-.85a15.44,15.44,0,0,1,5.05,2.16.42.42,0,0,1-.22.77A51,51,0,0,1,23,37.76C17.12,37.07,10.81,37.07,13,39.69Z"/><path class="cls-2" d="M0,19.78S1,11.87,18.26,12c15.36.16,19.19,1.34,21.57.88a.42.42,0,0,0,.15-.77c-1.72-1.1-6.9-3.63-19-4.2C5.29,7.21.17,12.67,0,19.78Z"/><path class="cls-2" d="M3.19,8.8S6.94,4.14,17.86,4.36c8.19.18,14,.89,16.84,1.16a.42.42,0,0,0,.23-.79c-2.37-1.15-7.38-3-15.08-2.87C8.7,2,4.61,6.7,3.19,8.8Z"/></g></g></svg>