<svg xmlns="http://www.w3.org/2000/svg" viewBox="0 0 55.52 52.24"><defs><style>.cls-1{fill:#197b14;}.cls-2{fill:#fff;}</style></defs><g id="Layer_2" data-name="Layer 2"><g id="Layer_1-2" data-name="Layer 1"><path class="cls-1" d="M52.23,26.12A26.12,26.12,0,1,1,49,13.5a24.37,24.37,0,0,1,1.87,4.24A25.84,25.84,0,0,1,52.23,26.12Z"/><path class="cls-1" d="M55.52,12.17a1.71,1.71,0,0,1-.48,1.2l-4.19,4.37A24.37,24.37,0,0,0,49,13.5l3.79-2.74a1.74,1.74,0,0,1,2.34.29A1.76,1.76,0,0,1,55.52,12.17Z"/><path class="cls-2" d="M50.85,17.74,27.26,42.37,10.39,22.89A2.07,2.07,0,0,1,12,19.47a2.09,2.09,0,0,1,1.14.35l14.16,9.4L49,13.5A24.37,24.37,0,0,1,50.85,17.74Z"/></g></g></svg>