<svg xmlns="http://www.w3.org/2000/svg" viewBox="0 0 19.07 18.68"><defs><style>.cls-1{fill:#e5b148;}</style></defs><g id="Layer_2" data-name="Layer 2"><g id="Layer_1-2" data-name="Layer 1"><path class="cls-1" d="M18.72,11.76a4.78,4.78,0,0,0-1-1.5,4.84,4.84,0,0,0-1.5-1,4.31,4.31,0,0,0-1.81-.36,4.37,4.37,0,0,0-3.63,1.71,2.26,2.26,0,0,0-.25-.29l.32-.32,5.5-5.5a.65.65,0,0,0,0-.93.67.67,0,0,0-.93,0L10.35,8.61,7.28,0H4.39L0,12.3H2.48l.87-2.67h5l.25.76L1.39,17.57a.66.66,0,0,0,0,.92.66.66,0,0,0,.93,0L3.9,16.91a5.57,5.57,0,0,0,1.51,1l.37.17L6.9,16.14,6.39,16a2.56,2.56,0,0,1-1-.58L9,11.81a2.34,2.34,0,0,1,.73,1.78,2.46,2.46,0,0,1-.49,1.53A2.3,2.3,0,0,1,7.91,16l-.58.15,1.25,2L8.92,18a4.64,4.64,0,0,0,2.94-4.3,3.63,3.63,0,0,1,.25-1.21,2.12,2.12,0,0,1,.91-1,2.54,2.54,0,0,1,2.65-.09,2.31,2.31,0,0,1,1.26,2.19,2.61,2.61,0,0,1-.33,1.29,2.33,2.33,0,0,1-2.3,1.24l-.57,0,.49,2.13h.46a3.88,3.88,0,0,0,1.95-.54,4.67,4.67,0,0,0,1.78-1.72,4.54,4.54,0,0,0,.66-2.36A4.16,4.16,0,0,0,18.72,11.76ZM4,7.67,5.85,2.19,7.66,7.67Z"/></g></g></svg>