<svg xmlns="http://www.w3.org/2000/svg" viewBox="0 0 54.31 54.27"><defs><style>.cls-1{fill:#545454;}.cls-2{fill:#e09419;}.cls-3{fill:#89623b;}.cls-4{fill:#ffa522;}.cls-5{fill:#ffcd2e;}.cls-6{fill:#ea8e15;}</style></defs><g id="Layer_2" data-name="Layer 2"><g id="Layer_1-2" data-name="Layer 1"><path class="cls-1" d="M18.66,50.66c.49-.15,1-.31,1.46-.5h0A4.36,4.36,0,0,1,18.66,50.66Z"/><path class="cls-2" d="M47.08,20.82a2.63,2.63,0,0,1-2.59,2.63H9.82a2.63,2.63,0,0,1,0-5.26H44.45A2.63,2.63,0,0,1,47.08,20.82Z"/><path class="cls-3" d="M20.12,50.16c-.48.19-1,.35-1.46.5-1.91.29-3.16-1.07-2.47-2.46a1.84,1.84,0,0,1,2.53-.85c.13-3.33-2.81-7-11.49-6.83s-8.53-12-4.84-14.21a7.41,7.41,0,0,1,7.36,0A21.21,21.21,0,0,0,10.23,30c-4-1.78-6.48-.52-6.84,3.52C3,38.39,13.92,39,17.47,41.38S22.77,48.73,20.12,50.16Z"/><path class="cls-4" d="M44.55,26.31A19.4,19.4,0,0,1,44.08,30h0a12.16,12.16,0,0,1-1.94,4.45,8.31,8.31,0,0,1-2,1.93l0,0a8.51,8.51,0,0,1-2.61,1.23c-7.73,2.2-7.64,5.65-7.24,8.57,0,.3.09.6.12.89.18,1.31,1.88,2.32,3.76,3.05h0c.48.18,1,.34,1.45.49,1,.32,2,.55,2.73.7a1.49,1.49,0,0,1,1.16,1.44h0a1.46,1.46,0,0,1-1.46,1.46H16.24a1.46,1.46,0,0,1-1.47-1.46h0a1.48,1.48,0,0,1,1.16-1.44c.73-.15,1.7-.38,2.73-.7.49-.15,1-.31,1.45-.49h0c1.88-.73,3.57-1.74,3.75-3.05.4-2.8,1.26-6.33-5-8.77q-.91-.36-2.07-.69c-4-1.14-5.79-4.46-6.53-7.63a20.19,20.19,0,0,1-.48-3.72,23.73,23.73,0,0,1,.07-2.85H44.49A22.26,22.26,0,0,1,44.55,26.31Z"/><path class="cls-3" d="M47.08,40.52c-8.68-.14-11.62,3.5-11.5,6.83a1.85,1.85,0,0,1,2.54.85c.69,1.39-.56,2.75-2.47,2.46-.48-.15-1-.31-1.45-.49h0c-2.65-1.43-.9-6.37,2.65-8.78s14.51-3,14.08-7.83c-.36-4-2.81-5.3-6.84-3.52a20.23,20.23,0,0,0,.47-3.72,7.41,7.41,0,0,1,7.36,0C55.61,28.57,55.76,40.67,47.08,40.52Z"/><polygon class="cls-5" points="27.15 0 29.41 4.56 34.44 5.29 30.8 8.85 31.66 13.86 27.15 11.49 22.65 13.86 23.51 8.85 19.86 5.29 24.9 4.56 27.15 0"/><polygon class="cls-5" points="12.64 5.53 14.31 8.92 18.04 9.46 15.34 12.09 15.98 15.81 12.64 14.06 9.29 15.81 9.93 12.09 7.23 9.46 10.96 8.92 12.64 5.53"/><polygon class="cls-5" points="41.67 5.53 40 8.92 36.26 9.46 38.97 12.09 38.33 15.81 41.67 14.06 45.01 15.81 44.37 12.09 47.08 9.46 43.34 8.92 41.67 5.53"/><path class="cls-6" d="M44.55,26.31A19.4,19.4,0,0,1,44.08,30h0a12.16,12.16,0,0,1-1.94,4.45c-.65.63-1.29,1.28-2,1.93l0,0a8.51,8.51,0,0,1-2.61,1.23c-7.73,2.2-7.64,5.65-7.24,8.57l-8.11,8h-6a1.46,1.46,0,0,1-1.47-1.46h0a1.48,1.48,0,0,1,1.16-1.44c.73-.15,1.7-.38,2.73-.7.49-.15,1-.31,1.45-.49h0c1.88-.73,3.57-1.74,3.75-3.05.4-2.8,1.26-6.33-5-8.77,7.73-4.94,16.61-10.62,23.25-14.89h2.41A22.26,22.26,0,0,1,44.55,26.31Z"/></g></g></svg>