<svg xmlns="http://www.w3.org/2000/svg" viewBox="0 0 31.4 39.23"><defs><style>.cls-1{fill:#ea822d;}</style></defs><g id="Layer_2" data-name="Layer 2"><g id="Layer_1-2" data-name="Layer 1"><path class="cls-1" d="M26.52,16.24V10.82a10.82,10.82,0,0,0-21.64,0v5.42A5.64,5.64,0,0,0,0,21.82V33.59a5.64,5.64,0,0,0,5.65,5.64h20.1a5.64,5.64,0,0,0,5.65-5.64V21.82A5.64,5.64,0,0,0,26.52,16.24ZM17.11,28.68v2.55a1.42,1.42,0,0,1-2.83,0V28.68a3.08,3.08,0,1,1,2.83,0Zm4.81-12.5H9.48V10.82a6.22,6.22,0,1,1,12.44,0Z"/></g></g></svg>