<svg xmlns="http://www.w3.org/2000/svg" viewBox="0 0 36.65 25.26"><defs><style>.cls-1{fill:#545454;}</style></defs><g id="Layer_2" data-name="Layer 2"><g id="Layer_1-2" data-name="Layer 1"><path class="cls-1" d="M18.33,0A19.61,19.61,0,0,0,0,12.63a19.61,19.61,0,0,0,36.65,0A19.61,19.61,0,0,0,18.33,0Zm0,21.85a9.22,9.22,0,1,1,9.21-9.22A9.22,9.22,0,0,1,18.33,21.85Z"/><path class="cls-1" d="M21.79,11.28a2.1,2.1,0,0,1-2.11-2.11A2.15,2.15,0,0,1,20,8a4.79,4.79,0,0,0-1.7-.31,4.94,4.94,0,1,0,4.94,4.94A5.13,5.13,0,0,0,23,10.92,2.07,2.07,0,0,1,21.79,11.28Z"/></g></g></svg>