<svg xmlns="http://www.w3.org/2000/svg" viewBox="0 0 18.69 18.69"><defs><style>.cls-1{fill:#66c64b;}</style></defs><g id="Layer_2" data-name="Layer 2"><g id="Layer_1-2" data-name="Layer 1"><path class="cls-1" d="M17.69,12.91l-2.76-1.58a1.61,1.61,0,0,0-2,.17,1.57,1.57,0,0,0-.47,1.12,2,2,0,0,1-.72,1.32c-1.13,1.14-2.6.54-5.09-1.93S3.61,8.06,4.74,6.92a2,2,0,0,1,1.33-.71,1.63,1.63,0,0,0,1.12-.47,1.64,1.64,0,0,0,.17-2L5.77,1A1.78,1.78,0,0,0,3.06.41C-.55,3.94-1.11,8.5,2.14,11.75l2.1,2.1.18.18.24.24.17.17,2.1,2.1c3.25,3.25,7.82,2.69,11.35-.92A1.78,1.78,0,0,0,17.69,12.91Z"/></g></g></svg>