<svg xmlns="http://www.w3.org/2000/svg" viewBox="0 0 18.76 17.65"><defs><style>.cls-1{fill:#6b6b6b;}</style></defs><g id="Layer_2" data-name="Layer 2"><g id="Layer_1-2" data-name="Layer 1"><path class="cls-1" d="M17.61,8A8.81,8.81,0,1,0,13,16.59l-1-1.94A6.62,6.62,0,1,1,15.39,8h-1l2.2,2.56L18.76,8Z"/><path class="cls-1" d="M5.12,12.51a.84.84,0,0,0,1.19,0l2.37-2.36h.13a1.35,1.35,0,0,0,.84-2.41V4.67A.85.85,0,0,0,8,4.67V7.75a1.36,1.36,0,0,0-.51,1.06,1,1,0,0,0,0,.17L5.12,11.32A.84.84,0,0,0,5.12,12.51Z"/></g></g></svg>