<svg xmlns="http://www.w3.org/2000/svg" viewBox="0 0 28.51 28.51"><defs><style>.cls-1{fill:#8dbff5;}.cls-2{fill:#0c71ee;}</style></defs><g id="Layer_2" data-name="Layer 2"><g id="Layer_1-2" data-name="Layer 1"><path class="cls-1" d="M.92,9.2A.92.92,0,0,1,0,8.28V0H8.28a.92.92,0,0,1,0,1.84H1.84V8.28A.92.92,0,0,1,.92,9.2Z"/><path class="cls-1" d="M19.31.92A.92.92,0,0,1,20.23,0h8.28V8.28a.92.92,0,0,1-1.84,0V1.84H20.23A.92.92,0,0,1,19.31.92Z"/><path class="cls-1" d="M27.59,19.31a.92.92,0,0,1,.92.92v8.28H20.23a.92.92,0,0,1,0-1.84h6.44V20.23A.92.92,0,0,1,27.59,19.31Z"/><path class="cls-1" d="M9.2,27.59a.93.93,0,0,1-.92.92H0V20.23a.92.92,0,1,1,1.84,0v6.44H8.28A.92.92,0,0,1,9.2,27.59Z"/><rect class="cls-2" x="15.92" y="16.38" width="1.99" height="1.99"/><rect class="cls-2" x="17.91" y="18.37" width="1.99" height="1.99"/><rect class="cls-2" x="19.9" y="16.38" width="1.99" height="1.99"/><rect class="cls-2" x="15.92" y="20.37" width="1.99" height="1.99"/><rect class="cls-2" x="19.9" y="20.37" width="1.99" height="1.99"/><path class="cls-2" d="M11,13H7A2.07,2.07,0,0,1,4.89,11V7A2.07,2.07,0,0,1,7,4.89h4A2.07,2.07,0,0,1,13,7v4A2.07,2.07,0,0,1,11,13ZM7,6.18A.78.78,0,0,0,6.18,7v4a.79.79,0,0,0,.78.79h4a.8.8,0,0,0,.79-.79V7A.79.79,0,0,0,11,6.18Z"/><rect class="cls-2" x="8.04" y="8.04" width="1.86" height="1.86"/><path class="cls-2" d="M11,23.62H7a2.07,2.07,0,0,1-2.07-2.07v-4A2.07,2.07,0,0,1,7,15.46h4A2.07,2.07,0,0,1,13,17.53v4A2.07,2.07,0,0,1,11,23.62ZM7,16.75a.78.78,0,0,0-.78.78v4a.78.78,0,0,0,.78.78h4a.79.79,0,0,0,.79-.78v-4a.79.79,0,0,0-.79-.78Z"/><rect class="cls-2" x="8.04" y="18.61" width="1.86" height="1.86"/><path class="cls-2" d="M21.55,13h-4A2.07,2.07,0,0,1,15.46,11V7a2.07,2.07,0,0,1,2.07-2.07h4A2.07,2.07,0,0,1,23.62,7v4A2.07,2.07,0,0,1,21.55,13Zm-4-6.86a.78.78,0,0,0-.78.78v4a.79.79,0,0,0,.78.79h4a.79.79,0,0,0,.78-.79V7a.78.78,0,0,0-.78-.78Z"/><rect class="cls-2" x="18.61" y="8.04" width="1.86" height="1.86"/></g></g></svg>