<svg xmlns="http://www.w3.org/2000/svg" viewBox="0 0 78.4 78.4"><defs><style>.cls-1{fill:#fff;}.cls-2{fill:#1977f3;}</style></defs><g id="Layer_2" data-name="Layer 2"><g id="Layer_1-2" data-name="Layer 1"><path class="cls-1" d="M78.4,39.19A39.2,39.2,0,0,1,44.89,78a38.11,38.11,0,0,1-5.69.42A39.2,39.2,0,1,1,78.4,39.19Z"/><path class="cls-2" d="M44.89,39.19h12L54.63,50.56H44.89V78a38.11,38.11,0,0,1-5.69.42,38.9,38.9,0,0,1-6.33-.52V50.56h-9.6V39.19h9.6V29.45a14,14,0,0,1,14-14,34.85,34.85,0,0,1,10,.88v9.1H49.82a4.94,4.94,0,0,0-4.93,4.94Z"/></g></g></svg>