<svg xmlns="http://www.w3.org/2000/svg" viewBox="0 0 100.37 100.37"><defs><style>.cls-1{fill:#efefef;}.cls-2{fill:#e0222c;}</style></defs><g id="Layer_2" data-name="Layer 2"><g id="Layer_1-2" data-name="Layer 1"><circle class="cls-1" cx="50.18" cy="50.18" r="50.18"/><path class="cls-2" d="M60.23,71.55h0a3.85,3.85,0,0,1-5.44,0L37.31,54.07,36.14,52.9a3.85,3.85,0,0,1,0-5.44L37.3,46.3,54.79,28.82a3.85,3.85,0,0,1,5.44,0h0a3.86,3.86,0,0,1,0,5.43L45.46,49a1.65,1.65,0,0,0,0,2.33L60.23,66.11A3.87,3.87,0,0,1,60.23,71.55Z"/></g></g></svg>