<svg xmlns="http://www.w3.org/2000/svg" viewBox="0 0 50.47 44.54">
    <defs>
        <style>.cls-1{fill:#ffffff;}</style>
    </defs>
    <g id="Layer_2" data-name="Layer 2">
        <g id="Layer_1-2" data-name="Layer 1">
            <path class="cls-1" d="M4.49,35.57A4.49,4.49,0,1,0,9,40.06,4.49,4.49,0,0,0,4.49,35.57Z"/>
            <path class="cls-1" d="M36,35.57a4.49,4.49,0,1,0,4.48,4.49A4.49,4.49,0,0,0,36,35.57Z"/>
            <path class="cls-1" d="M50.29,2a1.51,1.51,0,0,0-2-.6L41.66,5l.85-5H.33V33.57H36.82L41,8.68a1.61,1.61,0,0,0,.47-.15l8.18-4.47A1.5,1.5,0,0,0,50.29,2Zm-16,28.55H3.33V3H39Z"/>
        </g>
    </g>
</svg>