<svg xmlns="http://www.w3.org/2000/svg" viewBox="0 0 25.39 42.43"><defs><style>.cls-1{fill:#1a1803;}</style></defs><g id="Layer_2" data-name="Layer 2"><g id="Layer_1-2" data-name="Layer 1"><path class="cls-1" d="M15.55,37.38v5H10v-5c-6.37-.7-10-4.07-10-9.74H6.46c0,2.91,2.2,4.5,6.47,4.5,3.84,0,6-1.31,6-3.75C19,21.08.65,26.84.65,14.05.65,9.32,4.31,5.9,10,5V0h5.53V5C21.4,5.76,25,9.23,25,14.61H18.5c-.05-3-2.11-4.4-5.71-4.4-3.89,0-5.67,1.31-5.67,3.7,0,7,18.27,1.27,18.27,14.52C25.39,33.3,21.54,36.58,15.55,37.38Z"/></g></g></svg>