<svg xmlns="http://www.w3.org/2000/svg" viewBox="0 0 35.95 38.44"><defs><style>.cls-1{fill:#41b729;}</style></defs><g id="Layer_2" data-name="Layer 2"><g id="Layer_1-2" data-name="Layer 1"><path class="cls-1" d="M20.57,38.26A2.93,2.93,0,0,0,23,35.49a4.57,4.57,0,0,1,6.53-3.78A2.93,2.93,0,0,0,33.16,31a19.31,19.31,0,0,0,2.59-4.47A3,3,0,0,0,34.57,23a4.58,4.58,0,0,1,0-7.54,2.94,2.94,0,0,0,1.18-3.51,19.38,19.38,0,0,0-2.59-4.48,2.93,2.93,0,0,0-3.62-.73A4.56,4.56,0,0,1,23,3,2.93,2.93,0,0,0,20.57.18a18.8,18.8,0,0,0-5.19,0A2.93,2.93,0,0,0,12.94,3,4.56,4.56,0,0,1,6.41,6.73a2.93,2.93,0,0,0-3.62.73A19.38,19.38,0,0,0,.2,11.94a2.94,2.94,0,0,0,1.18,3.51,4.56,4.56,0,0,1,2,3.77,4.55,4.55,0,0,1-2,3.77A3,3,0,0,0,.2,26.51,19.31,19.31,0,0,0,2.79,31a2.93,2.93,0,0,0,3.62.73,4.57,4.57,0,0,1,6.53,3.78,2.93,2.93,0,0,0,2.44,2.77,18.8,18.8,0,0,0,5.19,0ZM9,19.22A8.95,8.95,0,1,1,18,28.16,8.94,8.94,0,0,1,9,19.22Z"/></g></g></svg>