<svg xmlns="http://www.w3.org/2000/svg" viewBox="0 0 22.74 22.31"><defs><style>.cls-1{fill:#fff;}</style></defs><g id="Layer_2" data-name="Layer 2"><g id="Layer_1-2" data-name="Layer 1"><path class="cls-1" d="M11.37,0C5.09,0,0,4.42,0,9.86a9.06,9.06,0,0,0,2.52,6.19h0v6.25L6.2,18.64a12.72,12.72,0,0,0,5.17,1.08c6.28,0,11.37-4.41,11.37-9.86S17.65,0,11.37,0ZM5.87,11.46a1.6,1.6,0,1,1,1.6-1.6A1.6,1.6,0,0,1,5.87,11.46Zm5.5,0A1.6,1.6,0,1,1,13,9.86,1.6,1.6,0,0,1,11.37,11.46Zm5.5,0a1.6,1.6,0,1,1,1.6-1.6A1.6,1.6,0,0,1,16.87,11.46Z"/></g></g></svg>