<svg xmlns="http://www.w3.org/2000/svg" viewBox="0 0 40.18 37.47"><defs><style>.cls-1{fill:#982ce5;}</style></defs><g id="Layer_2" data-name="Layer 2"><g id="Layer_1-2" data-name="Layer 1"><polygon class="cls-1" points="28.16 15.46 28.16 24.44 35.5 16.14 31.04 12.2 28.16 15.46"/><path class="cls-1" d="M40.18,9.52A3,3,0,0,0,35,7.74l-2.14,2.43L37.3,14.1l2.14-2.42A3,3,0,0,0,40.18,9.52Z"/><path class="cls-1" d="M18.64,30.73l.63-5.2,8.89-10.07V8.11L20.05,0H0V37.47H28.16v-13l-4.43,5ZM17.53,1.07l9.86,9.86H17.53ZM3.94,13.57H24.22v2.75H3.94Zm8,15.88h-8V26.69h8Zm2.18-6.56H3.94V20.13H14.08Z"/></g></g></svg>