<svg xmlns="http://www.w3.org/2000/svg" viewBox="0 0 21.81 20.02"><defs><style>.cls-1{fill:#ae2025;}.cls-2{fill:#fff;}</style></defs><g id="Layer_2" data-name="Layer 2"><g id="Layer_1-2" data-name="Layer 1"><path class="cls-1" d="M18.33,0H3.48A3.48,3.48,0,0,0,0,3.48v10a3.48,3.48,0,0,0,3.48,3.48h.19V20l5.78-3.1h8.88a3.48,3.48,0,0,0,3.48-3.48v-10A3.48,3.48,0,0,0,18.33,0Z"/><path class="cls-2" d="M11.92,12a2.93,2.93,0,0,0,1.92.61l.06,1.68a3.93,3.93,0,0,1-3.73-2.25A4.38,4.38,0,0,1,6.29,7.42a4.45,4.45,0,0,1,4.62-4.73,4.41,4.41,0,0,1,4.61,4.69A4.42,4.42,0,0,1,11.92,12Zm1.71-4.61c0-2-1.21-3.1-2.72-3.1a2.78,2.78,0,0,0-2.73,3.1,2.75,2.75,0,1,0,5.45,0Z"/></g></g></svg>