<svg xmlns="http://www.w3.org/2000/svg" viewBox="0 0 214.55 206.99"><defs><style>.cls-1{fill:#ff8352;}</style></defs><g id="Layer_2" data-name="Layer 2"><g id="Layer_1-2" data-name="Layer 1"><polygon class="cls-1" points="104.58 146.07 121.21 146.07 152.74 73.08 152.74 60.91 94.65 60.91 94.65 73.83 136.24 73.83 136.24 73.95 104.58 146.07"/><path class="cls-1" d="M214.55,54.65v97.68A103.53,103.53,0,0,1,123.25,207a102.13,102.13,0,0,1-24.52-3c1.86-7.31,3.72-14.83,5.54-22.26a79.22,79.22,0,0,0,19,2.26,80.57,80.57,0,1,0-80.38-83.83H67.05l-33.53,36L0,100.21H19.84A103.51,103.51,0,0,1,214.55,54.65Z"/></g></g></svg>