<svg xmlns="http://www.w3.org/2000/svg" viewBox="0 0 22.76 22.82"><defs><style>.cls-1{fill:#c1c1c1;}</style></defs><g id="Layer_2" data-name="Layer 2"><g id="Layer_1-2" data-name="Layer 1"><path class="cls-1" d="M1.45,22.82H1.23A1.21,1.21,0,0,1,0,21.76a1.49,1.49,0,0,1,0-.21l1.79-7.69a1.93,1.93,0,0,1,1.71-1.48l12-1-12-1A1.9,1.9,0,0,1,1.81,9L0,1.27a1.49,1.49,0,0,1,0-.21A1.25,1.25,0,0,1,1.35,0a1.65,1.65,0,0,1,.74.18L22.28,10.62a.89.89,0,0,1,0,1.58L2.09,22.64A1.51,1.51,0,0,1,1.45,22.82Z"/></g></g></svg>