<svg xmlns="http://www.w3.org/2000/svg" viewBox="0 0 40.21 57.62"><defs><style>.cls-1{fill:#fff;}</style></defs><g id="Layer_2" data-name="Layer 2"><g id="Layer_1-2" data-name="Layer 1"><polygon class="cls-1" points="30.16 23.83 30.16 28.83 35.21 28.83 35.21 52.62 5 52.62 5 28.83 10.05 28.83 10.05 23.83 0 23.83 0 57.62 40.21 57.62 40.21 23.83 30.16 23.83"/><path class="cls-1" d="M9.31,17.87l8.29-8.3V37.25a2.5,2.5,0,0,0,5,0V9.57l8.3,8.3a2.53,2.53,0,0,0,1.77.73,2.5,2.5,0,0,0,1.76-4.27L20.1,0,5.77,14.33a2.5,2.5,0,0,0,3.54,3.54Z"/></g></g></svg>