<svg xmlns="http://www.w3.org/2000/svg" viewBox="0 0 9.41 14.67">
    <defs>
        <style>.cls-1{fill:#797979;}</style>
    </defs>
    <g id="Layer_2" data-name="Layer 2">
        <g id="Layer_1-2" data-name="Layer 1">
            <path class="cls-1" d="M7.34,10.54a2.09,2.09,0,0,0-1,.28L3.85,8.38a2.06,2.06,0,0,0,.29-1,2.09,2.09,0,0,0-.29-1L6.29,3.85A2.06,2.06,0,0,0,9.41,2.07a2.07,2.07,0,0,0-4.14,0,2,2,0,0,0,.28,1L3.11,5.55a2,2,0,0,0-1-.28,2.07,2.07,0,0,0,0,4.14,2,2,0,0,0,1-.29l2.44,2.44a2.07,2.07,0,1,0,1.79-1Z"/>
        </g>
    </g>
</svg>