<svg xmlns="http://www.w3.org/2000/svg" viewBox="0 0 100.37 100.37"><defs><style>.cls-1{fill:#efefef;}.cls-2{fill:#e0222c;}</style></defs><g id="Layer_2" data-name="Layer 2"><g id="Layer_1-2" data-name="Layer 1"><circle class="cls-1" cx="50.18" cy="50.18" r="50.18"/><path class="cls-2" d="M40.57,33.33l7.76-7.76a2.51,2.51,0,0,1,1.83-.74h.05a2.47,2.47,0,0,1,1.82.74l7.77,7.76a2.53,2.53,0,0,1-3.59,3.58l-3.49-3.5v21a2.54,2.54,0,1,1-5.07,0v-21l-3.5,3.5a2.53,2.53,0,0,1-3.58-3.58ZM66.93,70.8a4.75,4.75,0,0,1-4.75,4.75h-24a4.75,4.75,0,0,1-4.75-4.75v-24a4.75,4.75,0,0,1,4.75-4.74h2.6a2.15,2.15,0,0,1,2.15,2.15v.88a2.16,2.16,0,0,1-2.15,2.16,2.16,2.16,0,0,0-2.16,2.15V68.2a2.16,2.16,0,0,0,2.16,2.15H59.59a2.15,2.15,0,0,0,2.15-2.15V49.39a2.15,2.15,0,0,0-2.15-2.15,2.16,2.16,0,0,1-2.15-2.16V44.2a2.15,2.15,0,0,1,2.15-2.15h2.59a4.74,4.74,0,0,1,4.75,4.74Z"/></g></g></svg>