<svg xmlns="http://www.w3.org/2000/svg" viewBox="0 0 310.89 232.77"><defs><style>.cls-1{fill:#559aff;}</style></defs><g id="Layer_2" data-name="Layer 2"><g id="Layer_1-2" data-name="Layer 1"><path class="cls-1" d="M246.47,179.38a26.7,26.7,0,1,1-26.7,26.69A26.7,26.7,0,0,1,246.47,179.38Z"/><path class="cls-1" d="M61.63,179.38a26.7,26.7,0,1,1-26.7,26.69A26.7,26.7,0,0,1,61.63,179.38Z"/><path class="cls-1" d="M310.89.45V206.07h-21.8a42.62,42.62,0,0,0-85.24,0H123.3V30.6A30.6,30.6,0,0,1,153.9,0H305.64A30.33,30.33,0,0,1,310.89.45Z"/><path class="cls-1" d="M5.45,101.42C30.36,63.23,62.72,56.2,62.72,56.2h46.84V206.07h-5.31A42.62,42.62,0,0,0,19,205.85a21.16,21.16,0,0,1-19-21V119.7A33.6,33.6,0,0,1,5.45,101.42Z"/></g></g></svg>