<svg xmlns="http://www.w3.org/2000/svg" viewBox="0 0 100.37 100.37"><defs><style>.cls-1{fill:#efefef;}.cls-2{fill:#e0222c;}</style></defs><g id="Layer_2" data-name="Layer 2"><g id="Layer_1-2" data-name="Layer 1"><circle class="cls-1" cx="50.18" cy="50.18" r="50.18"/><path class="cls-2" d="M50.91,57.07H49.46A11,11,0,0,1,38.52,46.13V34.75A11,11,0,0,1,49.46,23.81h1.45A11,11,0,0,1,61.85,34.75V46.13A11,11,0,0,1,50.91,57.07ZM49.46,28.81a6,6,0,0,0-5.94,5.94V46.13a6,6,0,0,0,5.94,5.94h1.45a6,6,0,0,0,5.94-5.94V34.75a6,6,0,0,0-5.94-5.94Z"/><path class="cls-2" d="M64.71,76.56h-29a7,7,0,0,1-7-7V44.43a7,7,0,0,1,7-7H64.71a7,7,0,0,1,7,7V69.58A7,7,0,0,1,64.71,76.56Zm-29-34.11a2,2,0,0,0-2,2V69.58a2,2,0,0,0,2,2H64.71a2,2,0,0,0,2-2V44.43a2,2,0,0,0-2-2Z"/></g></g></svg>