<svg xmlns="http://www.w3.org/2000/svg" viewBox="0 0 17.27 17.85">
    <defs>
        <style>.cls-1{fill:#4f391b;}</style>
    </defs>
    <g id="Layer_2" data-name="Layer 2">
        <g id="Layer_1-2" data-name="Layer 1">
            <path class="cls-1" d="M13.15,8.38a4.62,4.62,0,0,1,1,.11l.43-2.24H11V3.68a3.69,3.69,0,0,0-7.37,0V6.25H0l1.79,9.3H8.11a5.16,5.16,0,0,1-.32-1.82A5.35,5.35,0,0,1,13.15,8.38ZM4.82,3.68a2.49,2.49,0,0,1,5,0V6.25h-5Z"/>
            <path class="cls-1" d="M13.14,9.61a4.12,4.12,0,1,0,4.13,4.12A4.12,4.12,0,0,0,13.14,9.61ZM16,14.22H13.63v2.41h-1V14.22H10.25v-1h2.41V10.84h1v2.41H16Z"/>
        </g>
    </g>
</svg>