<svg xmlns="http://www.w3.org/2000/svg" viewBox="0 0 118.82 118.82"><defs><style>.cls-1{fill:#f9dcd4;opacity:0;}.cls-2{fill:#bfbfbf;}</style></defs><title>Asset 62</title><g id="Layer_2" data-name="Layer 2"><g id="Layer_1-2" data-name="Layer 1"><rect class="cls-1" width="118.82" height="118.82" rx="30"/><path class="cls-2" d="M56.94,33.88l10.32,7.71,9.24,6.92,0,3.61.37,25.17a8.44,8.44,0,0,1-8.31,8.54l-21.83.32a8.44,8.44,0,0,1-8.55-8.3l-.36-25.17,0-3.61,9-7.18,10.09-8m-.08-5.05L44.37,38.76,34.75,46.4l-8.12,6.45,7.24-.11.36,25.17a12.43,12.43,0,0,0,12.6,12.24l21.84-.32a12.43,12.43,0,0,0,12.25-12.6l-.37-25.17,7.24-.1-8.3-6.21-9.84-7.36L56.86,28.83Z"/><path class="cls-2" d="M57.31,68.94a2.1,2.1,0,0,1,2.1,2.1v7.57h-4.2V71a2.1,2.1,0,0,1,2.1-2.1m0-4a6.1,6.1,0,0,0-6.1,6.1V82.61h12.2V71a6.1,6.1,0,0,0-6.1-6.1Z"/></g></g></svg>