<svg xmlns="http://www.w3.org/2000/svg" viewBox="0 0 115.44 115.44"><defs><style>.cls-1{fill:#fef102;}.cls-2{fill:#1a1803;}</style></defs><g id="Layer_2" data-name="Layer 2"><g id="Layer_1-2" data-name="Layer 1"><path class="cls-1" d="M108.7,87.42l-69.35,27.3a10.45,10.45,0,0,1-13.59-6.18L.7,41.92a10.83,10.83,0,0,1,6-13.9L76.09.72A10.43,10.43,0,0,1,89.67,6.9l25.06,66.62A10.83,10.83,0,0,1,108.7,87.42Z"/><path class="cls-2" d="M78,74.2H37.4a2.5,2.5,0,1,0,0,5H78a2.5,2.5,0,0,0,0-5Z"/><path class="cls-2" d="M78,54.76H37.4a2.5,2.5,0,0,0,0,5H78a2.5,2.5,0,0,0,0-5Z"/><path class="cls-2" d="M37.4,40.32H78a2.5,2.5,0,0,0,0-5H37.4a2.5,2.5,0,0,0,0,5Z"/></g></g></svg>