<svg xmlns="http://www.w3.org/2000/svg" viewBox="0 0 115.44 115.44">
    <defs>
        <style>.cls-1{fill:#bc877e;}.cls-2{fill:#1a1803;}.cls-3{fill:#fff;}</style>
    </defs>
    <g id="Layer_2" data-name="Layer 2">
        <g id="Layer_1-2" data-name="Layer 1">
            <path class="cls-1" d="M108.7,87.42l-69.35,27.3a10.45,10.45,0,0,1-13.59-6.18L.7,41.92a10.83,10.83,0,0,1,6-13.9L76.09.72A10.43,10.43,0,0,1,89.67,6.9l25.06,66.62A10.83,10.83,0,0,1,108.7,87.42Z"/>
            <path class="cls-2" d="M64.1,61.49V74.91H51.35V61.49a5.19,5.19,0,0,1,5.19-5.19H58.9A5.19,5.19,0,0,1,64.1,61.49Z"/>
            <path class="cls-2" d="M85.46,50.71l-6.29-8.48,0,0-4.09-5.51a11.12,11.12,0,0,0-8.9-4.48H49.3a11.12,11.12,0,0,0-8.9,4.48l-4.09,5.51,0,0-6.12,8.24-.17.25a4.11,4.11,0,0,0,3.58,6.15h2.71V75.55a7.71,7.71,0,0,0,7.7,7.7H71.47a7.71,7.71,0,0,0,7.7-7.7V56.86h2.71a4.12,4.12,0,0,0,3.58-6.15ZM74.17,51.86V75.55a2.7,2.7,0,0,1-2.7,2.7H44a2.7,2.7,0,0,1-2.7-2.7V51.86H35.34l.94-1.27,6.25-8.41,1.88-2.53a6.12,6.12,0,0,1,4.89-2.46H66.15A6.09,6.09,0,0,1,71,39.65l1.88,2.53,6.26,8.42.94,1.26Z"/>
            <path class="cls-3" d="M79.17,50.6l-6.26-8.42L71,39.65a6.09,6.09,0,0,0-4.88-2.46H49.3a6.12,6.12,0,0,0-4.89,2.46l-1.88,2.53-6.25,8.41-.94,1.27h5.94V75.55a2.7,2.7,0,0,0,2.7,2.7H71.47a2.7,2.7,0,0,0,2.7-2.7V51.86h5.94ZM64.1,74.91H51.35V61.49a5.19,5.19,0,0,1,5.19-5.19H58.9a5.19,5.19,0,0,1,5.2,5.19Z"/>
        </g>
    </g>
</svg>