<svg xmlns="http://www.w3.org/2000/svg" viewBox="0 0 56.56 51.06"><defs><style>.cls-1{fill:#a0a0a0;}</style></defs><g id="Layer_2" data-name="Layer 2"><g id="Layer_1-2" data-name="Layer 1"><path class="cls-1" d="M34.65,29.3V42.72H21.9V29.3a5.19,5.19,0,0,1,5.19-5.19h2.36A5.19,5.19,0,0,1,34.65,29.3Z"/><path class="cls-1" d="M56,18.52,49.72,10l0,0L45.6,4.48A11.12,11.12,0,0,0,36.7,0H19.85A11.12,11.12,0,0,0,11,4.48L6.86,10l0,0L.71,18.27l-.16.25a4.11,4.11,0,0,0,3.57,6.15H6.83V43.36a7.72,7.72,0,0,0,7.7,7.7H42a7.71,7.71,0,0,0,7.7-7.7V24.67h2.71A4.12,4.12,0,0,0,56,18.52ZM44.72,19.67V43.36a2.7,2.7,0,0,1-2.7,2.7H14.53a2.71,2.71,0,0,1-2.7-2.7V19.67H5.89l.94-1.27L13.08,10,15,7.46A6.12,6.12,0,0,1,19.85,5H36.7a6.09,6.09,0,0,1,4.88,2.46L43.46,10l6.26,8.42.94,1.26Z"/></g></g></svg>