<svg xmlns="http://www.w3.org/2000/svg" viewBox="0 0 115.44 115.44"><defs><style>.cls-1{fill:#fef102;}.cls-2{fill:#1a1803;}.cls-3{fill:#fff;}</style></defs><g id="Layer_2" data-name="Layer 2"><g id="Layer_1-2" data-name="Layer 1"><path class="cls-1" d="M108.7,87.42l-69.35,27.3a10.45,10.45,0,0,1-13.59-6.18L.7,41.92a10.83,10.83,0,0,1,6-13.9L76.09.72A10.43,10.43,0,0,1,89.67,6.9l25.06,66.62A10.83,10.83,0,0,1,108.7,87.42Z"/><path class="cls-2" d="M82.75,77.74a2.47,2.47,0,0,1-2.89,2,12,12,0,0,1-7.48-5.5,5.21,5.21,0,0,1-.34-.56l0,0a18.23,18.23,0,0,1-2.17-9.14v-9A12.11,12.11,0,0,0,52.5,44.56,12.13,12.13,0,0,0,45.6,55.5v9a18.19,18.19,0,0,1-2.19,9.17c-.11.2-.22.38-.34.56a12,12,0,0,1-7.47,5.5,2.59,2.59,0,0,1-.47,0,2.51,2.51,0,0,1-.49-5c.63-.13,6-1.57,6-10.32v-9A17.14,17.14,0,0,1,51.34,39.61v-1a6.39,6.39,0,0,1,12.77,0v.94A17.18,17.18,0,0,1,74.85,55.5v9c0,8.78,5.35,10.19,6,10.33A2.51,2.51,0,0,1,82.75,77.74Z"/><path class="cls-2" d="M57.73,70.57A6.38,6.38,0,1,0,64.11,77,6.38,6.38,0,0,0,57.73,70.57Zm0,7.76A1.38,1.38,0,1,1,59.11,77,1.38,1.38,0,0,1,57.73,78.33Z"/><path class="cls-3" d="M72,73.61c-1.27-1.93-5.9-8-14.29-8s-13.07,6.08-14.32,8a18.19,18.19,0,0,0,2.19-9.17v-9a12.11,12.11,0,0,1,20.7-8.57,12,12,0,0,1,3.55,8.57v9A18.23,18.23,0,0,0,72,73.61Z"/></g></g></svg>