<svg xmlns="http://www.w3.org/2000/svg" viewBox="0 0 50.16 51.06"><defs><style>.cls-1{fill:#a0a0a0;}</style></defs><g id="Layer_2" data-name="Layer 2"><g id="Layer_1-2" data-name="Layer 1"><path class="cls-1" d="M48.18,42.52c-.61-.14-6-1.55-6-10.33v-9A17.18,17.18,0,0,0,31.48,7.32V6.38a6.39,6.39,0,0,0-12.77,0v1A17.14,17.14,0,0,0,8,23.22v9c0,8.75-5.33,10.19-6,10.32a2.51,2.51,0,0,0,.49,5,2.59,2.59,0,0,0,.47,0c3.46-.65,10-4.68,10-15.23v-9a12.11,12.11,0,0,1,20.7-8.57,12,12,0,0,1,3.55,8.57v9c0,10.55,6.54,14.58,10,15.23a2.47,2.47,0,0,0,2.89-2A2.51,2.51,0,0,0,48.18,42.52Z"/><path class="cls-1" d="M25.09,38.3a6.38,6.38,0,1,0,6.38,6.38A6.38,6.38,0,0,0,25.09,38.3Zm0,7.76a1.38,1.38,0,1,1,1.38-1.38A1.38,1.38,0,0,1,25.09,46.06Z"/></g></g></svg>