<svg xmlns="http://www.w3.org/2000/svg" viewBox="0 0 115.44 115.44"><defs><style>.cls-1{fill:#fef102;}.cls-2{fill:#1a1803;}.cls-3{fill:#fff;}</style></defs><g id="Layer_2" data-name="Layer 2"><g id="Layer_1-2" data-name="Layer 1"><path class="cls-1" d="M108.7,87.42l-69.35,27.3a10.45,10.45,0,0,1-13.59-6.18L.7,41.92a10.83,10.83,0,0,1,6-13.9L76.09.72A10.43,10.43,0,0,1,89.67,6.9l25.06,66.62A10.83,10.83,0,0,1,108.7,87.42Z"/><path class="cls-2" d="M76.72,47.56h-6.1V45a12.9,12.9,0,0,0-25.8,0v2.55H38.73a6.67,6.67,0,0,0-6.66,6.67V71.51A11.67,11.67,0,0,0,43.73,83.17h28A11.67,11.67,0,0,0,83.38,71.51V54.23A6.67,6.67,0,0,0,76.72,47.56ZM49.82,45a7.9,7.9,0,0,1,15.8,0v2.55H49.82Zm28.56,26.5a6.66,6.66,0,0,1-6.66,6.66h-28a6.67,6.67,0,0,1-6.66-6.66V54.23a1.67,1.67,0,0,1,1.66-1.67h38a1.66,1.66,0,0,1,1.66,1.67Z"/><path class="cls-3" d="M76.72,52.56h-38a1.67,1.67,0,0,0-1.66,1.67V71.51a6.67,6.67,0,0,0,6.66,6.66h28a6.66,6.66,0,0,0,6.66-6.66V54.23A1.66,1.66,0,0,0,76.72,52.56ZM57.72,68a12.93,12.93,0,0,1-12.64-10.3h5.18A7.92,7.92,0,0,0,57.72,63a7.94,7.94,0,0,0,7.46-5.3h5.18A12.92,12.92,0,0,1,57.72,68Z"/><path class="cls-2" d="M70.36,57.72a12.91,12.91,0,0,1-25.28,0h5.18A7.92,7.92,0,0,0,57.72,63a7.94,7.94,0,0,0,7.46-5.3Z"/></g></g></svg>