<svg xmlns="http://www.w3.org/2000/svg" viewBox="0 0 118.82 118.82"><defs><style>.cls-1{fill:#f9dcd4;opacity:0;}.cls-2{fill:#bfbfbf;}</style></defs><title>Asset 61</title><g id="Layer_2" data-name="Layer 2"><g id="Layer_1-2" data-name="Layer 1"><rect class="cls-1" width="118.82" height="118.82" rx="30"/><path class="cls-2" d="M74.73,32.82A4.19,4.19,0,0,1,78.91,37V81.8A4.19,4.19,0,0,1,74.73,86H43.87a4.19,4.19,0,0,1-4.19-4.19V37a4.2,4.2,0,0,1,4.19-4.19H74.73m0-4H43.87A8.19,8.19,0,0,0,35.68,37V81.8A8.19,8.19,0,0,0,43.87,90H74.73a8.19,8.19,0,0,0,8.18-8.19V37a8.19,8.19,0,0,0-8.18-8.19Z"/><path class="cls-2" d="M68.26,75.32a2,2,0,0,1-2,2H47.58a2,2,0,0,1,0-4H66.26A2,2,0,0,1,68.26,75.32Z"/><path class="cls-2" d="M66.21,64.7a2,2,0,0,1-2,2H47.58a2,2,0,0,1,0-4H64.21A2,2,0,0,1,66.21,64.7Z"/><path class="cls-2" d="M73,54.11a2,2,0,0,1-2,2H47.58a2,2,0,0,1,0-4H71A2,2,0,0,1,73,54.11Z"/><path class="cls-2" d="M73,43.49a2,2,0,0,1-2,2H47.58a2,2,0,0,1,0-4H71A2,2,0,0,1,73,43.49Z"/></g></g></svg>