<svg xmlns="http://www.w3.org/2000/svg" viewBox="0 0 44.12 44.12">
    <defs>
        <style>.cls-1{fill:#2563eb;}.cls-2{fill:#fff;}</style>
    </defs>
    <g id="Layer_2" data-name="Layer 2">
        <g id="Layer_1-2" data-name="Layer 1">
            <circle class="cls-1" cx="22.06" cy="22.06" r="22.06"/>
            <path class="cls-2" d="M22.06,13.32a8.75,8.75,0,1,0,8.75,8.74A8.74,8.74,0,0,0,22.06,13.32Zm0,15.94a7.2,7.2,0,1,1,7.2-7.2A7.21,7.21,0,0,1,22.06,29.26Z"/>
            <path class="cls-2" d="M24.76,18.93,21,22.73l-1.58-1.59a1.18,1.18,0,0,0-1.65,0,1.16,1.16,0,0,0,0,1.64L21,26l5.45-5.44a1.16,1.16,0,0,0-1.64-1.64Z"/>
        </g>
    </g>
</svg>