<svg xmlns="http://www.w3.org/2000/svg" viewBox="0 0 44.12 44.12">
    <defs>
        <style>.cls-1{fill:#f3f3f3;}.cls-2{fill:silver;}</style>
    </defs>
    <g id="Layer_2" data-name="Layer 2">
        <g id="Layer_1-2" data-name="Layer 1">
            <circle class="cls-1" cx="22.06" cy="22.06" r="22.06"/>
            <path class="cls-2" d="M16.12,16.72a.57.57,0,0,0,0-.18l.87-.73a.52.52,0,0,0,.09-.69l-.31-.45L15.57,16a.78.78,0,0,0-.22,0l-.19,0-.73-.86a.5.5,0,0,0-.68-.1l-.46.31,1.32,1.17a.83.83,0,0,0,0,.22,1.11,1.11,0,0,0,0,.19l-.86.73a.52.52,0,0,0-.09.69l.31.45,1.17-1.32a.78.78,0,0,0,.22,0l.19,0,.73.86a.51.51,0,0,0,.68.1l.45-.32-1.32-1.17A.78.78,0,0,0,16.12,16.72Zm-.57.29a.36.36,0,0,1-.4,0,.35.35,0,0,1-.15-.29.37.37,0,0,1,.12-.26.36.36,0,0,1,.23-.08.35.35,0,0,1,.24.1.32.32,0,0,1,.11.24A.35.35,0,0,1,15.55,17Z"/>
            <path class="cls-2" d="M16.12,27.4a.58.58,0,0,0,0-.19l.87-.73a.52.52,0,0,0,.09-.69l-.31-.45-1.17,1.32a.78.78,0,0,0-.22,0l-.19,0-.73-.86a.51.51,0,0,0-.68-.09l-.46.31,1.32,1.17a.78.78,0,0,0,0,.22,1.1,1.1,0,0,0,0,.18l-.86.73a.52.52,0,0,0-.09.69l.31.45,1.17-1.32a.78.78,0,0,0,.22,0,.62.62,0,0,0,.19,0l.73.87a.51.51,0,0,0,.68.09l.45-.31-1.32-1.17A.85.85,0,0,0,16.12,27.4Zm-.57.28a.36.36,0,0,1-.4,0A.33.33,0,0,1,15,27.4a.34.34,0,0,1,.12-.26.32.32,0,0,1,.23-.09.35.35,0,0,1,.24.1.33.33,0,0,1,.11.25A.35.35,0,0,1,15.55,27.68Z"/>
            <path class="cls-2" d="M28,16.72a.58.58,0,0,0,0,.19l-.87.73a.52.52,0,0,0-.09.69l.31.45,1.17-1.32a.78.78,0,0,0,.22,0l.19,0,.73.86a.51.51,0,0,0,.68.1l.46-.32-1.32-1.17a.78.78,0,0,0,0-.22.57.57,0,0,0,0-.18l.87-.73a.52.52,0,0,0,.09-.69l-.31-.45L29,16a.78.78,0,0,0-.22,0l-.19,0-.73-.86a.5.5,0,0,0-.68-.1l-.45.31L28,16.5A.85.85,0,0,0,28,16.72Zm.54-.26a.38.38,0,0,1,.23-.08.33.33,0,0,1,.24.1.32.32,0,0,1,.11.24A.35.35,0,0,1,29,17a.34.34,0,0,1-.2.06.31.31,0,0,1-.19-.06.36.36,0,0,1-.16-.29A.37.37,0,0,1,28.54,16.46Z"/>
            <path class="cls-2" d="M28.77,24a3.38,3.38,0,0,0-2.36,1,.93.93,0,0,1-1.05.15l-1.22-.61.16-1.06a1.93,1.93,0,0,0,0-.24V19.55L25.36,19a.91.91,0,0,1,1.05.16,3.41,3.41,0,1,0-1-3,3,3,0,0,0,0,.95,1,1,0,0,1-.51.94l-.57.28V18a.78.78,0,0,0-.21-.54l-.28-.31a.45.45,0,0,0-.45-.45H20.75a.45.45,0,0,0-.45.45l-.28.31a.78.78,0,0,0-.21.54v.33l-.57-.28a1,1,0,0,1-.51-.94,3,3,0,0,0,0-.95,3.4,3.4,0,1,0-1,3A.91.91,0,0,1,18.76,19l1,.52v3.63a1.93,1.93,0,0,0,0,.24L20,24.48l-1.22.61a.93.93,0,0,1-1.05-.15A3.41,3.41,0,0,0,12,27.78a3.41,3.41,0,0,0,6.8-.38,3,3,0,0,0,0-.43.91.91,0,0,1,.52-.92l.9-.45,0,.18A1.61,1.61,0,0,0,21.08,27l.8.39h.36L23,27A1.61,1.61,0,0,0,24,25.78l0-.18.91.45a.92.92,0,0,1,.51.92,3,3,0,0,0,0,.43A3.41,3.41,0,1,0,28.77,24Zm0-10a2.7,2.7,0,1,1-2.12,4.36,2.46,2.46,0,0,1-.48-1,2.28,2.28,0,0,1-.1-.7A2.69,2.69,0,0,1,28.77,14ZM18,17.42a2.76,2.76,0,0,1-.48,1,2.7,2.7,0,1,1,.57-1.67A2.63,2.63,0,0,1,18,17.42ZM15.35,30.1a2.7,2.7,0,1,1,2.13-4.37,2.76,2.76,0,0,1,.48,1,2.63,2.63,0,0,1,.09.7A2.7,2.7,0,0,1,15.35,30.1Zm6.89-3.77h-.36V21h.36Zm6.53,3.77a2.7,2.7,0,0,1-2.7-2.7,2.28,2.28,0,0,1,.1-.7,2.46,2.46,0,0,1,.48-1,2.7,2.7,0,1,1,2.12,4.37Z"/>
            <path class="cls-2" d="M29.54,27.4a.58.58,0,0,0,0-.19l.87-.73a.52.52,0,0,0,.09-.69l-.31-.45L29,26.66a.78.78,0,0,0-.22,0l-.19,0-.73-.86a.51.51,0,0,0-.68-.09l-.45.31L28,27.18a.78.78,0,0,0,0,.22.57.57,0,0,0,0,.18l-.87.73a.52.52,0,0,0-.09.69l.31.45,1.17-1.32a.78.78,0,0,0,.22,0,.58.58,0,0,0,.19,0l.73.87a.51.51,0,0,0,.68.09l.46-.31-1.32-1.17A.83.83,0,0,0,29.54,27.4Zm-.57.28a.34.34,0,0,1-.2.06.31.31,0,0,1-.19-.06.33.33,0,0,1,0-.54.34.34,0,0,1,.47,0,.33.33,0,0,1,.11.25A.35.35,0,0,1,29,27.68Z"/>
        </g>
    </g>
</svg>