<svg xmlns="http://www.w3.org/2000/svg" viewBox="0 0 44.12 44.12">
    <defs>
        <style>.cls-1{fill:#ffece9;}.cls-2{fill:#ef4923;}</style>
    </defs>
    <g id="Layer_2" data-name="Layer 2">
        <g id="Layer_1-2" data-name="Layer 1">
            <circle class="cls-1" cx="22.06" cy="22.06" r="22.06"/>
            <path class="cls-2" d="M27.88,16.24H26.14v-.61a4.18,4.18,0,1,0-8.36,0v.61H16a2.6,2.6,0,0,0-2.59,2.59V28A2.6,2.6,0,0,0,16,30.54H27.88A2.59,2.59,0,0,0,30.47,28V18.83A2.59,2.59,0,0,0,27.88,16.24Zm-8.53-.61a2.61,2.61,0,1,1,5.22,0v.61H19.35Zm0,2.18h5.22v2.61a2.61,2.61,0,0,1-5.22,0ZM28.9,28a1,1,0,0,1-1,1H16a1,1,0,0,1-1-1V18.83a1,1,0,0,1,1-1h1.74v2.61a4.18,4.18,0,0,0,8.36,0V17.81h1.74a1,1,0,0,1,1,1Z"/>
        </g>
    </g>
</svg>