<svg xmlns="http://www.w3.org/2000/svg" viewBox="0 0 44.12 44.12">
    <defs>
        <style>.cls-1{fill:#f3f3f3;}.cls-2{fill:silver;}</style>
    </defs>
    <g id="Layer_2" data-name="Layer 2">
        <g id="Layer_1-2" data-name="Layer 1">
            <circle class="cls-1" cx="22.06" cy="22.06" r="22.06"/>
            <path class="cls-2" d="M28.43,13.48H15.69a2.21,2.21,0,0,0-2.21,2.21V28.43a2.21,2.21,0,0,0,2.21,2.21H28.43a2.21,2.21,0,0,0,2.21-2.21V15.69A2.21,2.21,0,0,0,28.43,13.48Zm.67,15a.67.67,0,0,1-.67.67H15.69a.67.67,0,0,1-.67-.67V15.69a.67.67,0,0,1,.67-.67h7.78v5.63l1.69-1.2,1.69,1.2V15h1.58a.67.67,0,0,1,.67.67Z"/>
        </g>
    </g>
</svg>