<svg xmlns="http://www.w3.org/2000/svg" xmlns:xlink="http://www.w3.org/1999/xlink" viewBox="0 0 68.78 68.78"><defs><style>.cls-1{fill:#fff;}.cls-2{fill:url(#linear-gradient);}.cls-3{fill:url(#linear-gradient-2);}.cls-4{fill:url(#linear-gradient-3);}.cls-5{fill:url(#linear-gradient-4);}.cls-6{fill:#191919;}.cls-7{opacity:0.18;fill:url(#linear-gradient-5);}.cls-8{opacity:0.66;fill:url(#linear-gradient-6);}.cls-9{fill:#604011;}.cls-10{fill:#ffbc15;}</style><linearGradient id="linear-gradient" x1="55.94" y1="16.41" x2="21.99" y2="44.73" gradientUnits="userSpaceOnUse"><stop offset="0" stop-color="#7a5717"/><stop offset="0.29" stop-color="#efca2b"/><stop offset="0.73" stop-color="#dd931d"/><stop offset="1" stop-color="#7a5717"/></linearGradient><linearGradient id="linear-gradient-2" x1="36.94" y1="27.55" x2="25.83" y2="57.31" xlink:href="#linear-gradient"/><linearGradient id="linear-gradient-3" x1="28.25" y1="47.31" x2="35.36" y2="32.84" xlink:href="#linear-gradient"/><linearGradient id="linear-gradient-4" x1="39.75" y1="22" x2="28.48" y2="49.16" gradientUnits="userSpaceOnUse"><stop offset="0" stop-color="#fff"/><stop offset="0.29" stop-color="#efca2b"/><stop offset="0.49" stop-color="#dd931d"/><stop offset="0.68" stop-color="#7a5717"/><stop offset="1" stop-color="#fff"/></linearGradient><linearGradient id="linear-gradient-5" x1="46.63" y1="5.97" x2="35.03" y2="-10.88" gradientTransform="translate(14.23 71.15) rotate(-45)" gradientUnits="userSpaceOnUse"><stop offset="0"/><stop offset="1" stop-color="#fff"/></linearGradient><linearGradient id="linear-gradient-6" x1="45.83" y1="4.82" x2="36.28" y2="-9.06" xlink:href="#linear-gradient-5"/></defs><g id="Layer_2" data-name="Layer 2"><g id="Layer_1-2" data-name="Layer 1"><rect class="cls-1" width="68.78" height="68.78" rx="17.11"/><circle class="cls-2" cx="34.39" cy="34.39" r="21.65"/><path class="cls-3" d="M34.39,12.74A21.65,21.65,0,1,0,56,34.39,21.65,21.65,0,0,0,34.39,12.74Zm0,41.32A19.68,19.68,0,1,1,54.06,34.39,19.67,19.67,0,0,1,34.39,54.06Z"/><path class="cls-4" d="M36.22,44.74v1.47A1.77,1.77,0,0,1,34.45,48h0a1.77,1.77,0,0,1-1.77-1.77V44.77c-3-.33-5-1.56-5.92-3.6a1.88,1.88,0,0,1,1.7-2.64h.45a1.92,1.92,0,0,1,1.73,1.19c.51,1.1,1.82,1.69,3.9,1.69,2.46,0,3.87-.84,3.87-2.4,0-4.71-11.73-1-11.73-9.21,0-3,2.34-5.22,6-5.8V22.56a1.77,1.77,0,0,1,1.77-1.77h0a1.77,1.77,0,0,1,1.77,1.77V24c2.69.35,4.62,1.59,5.5,3.53A1.86,1.86,0,0,1,40,30.16h-.41a1.93,1.93,0,0,1-1.74-1.22c-.48-1.1-1.66-1.6-3.42-1.6-2.49,0-3.63.84-3.63,2.37,0,4.5,11.7.81,11.7,9.3C42.52,42.13,40.06,44.23,36.22,44.74Z"/><path class="cls-5" d="M34.45,20.79a1.77,1.77,0,0,1,1.77,1.77V24c2.69.35,4.62,1.59,5.5,3.53A1.86,1.86,0,0,1,40,30.16h-.41a1.93,1.93,0,0,1-1.74-1.22c-.48-1.1-1.66-1.6-3.42-1.6-2.49,0-3.63.84-3.63,2.37,0,4.5,11.7.81,11.7,9.3,0,3.12-2.46,5.22-6.3,5.73v1.47a1.77,1.77,0,1,1-3.54,0V44.77c-3-.33-5-1.56-5.92-3.6a1.88,1.88,0,0,1,1.7-2.64h.45a1.92,1.92,0,0,1,1.73,1.19c.51,1.1,1.82,1.69,3.9,1.69,2.46,0,3.87-.84,3.87-2.4,0-4.71-11.73-1-11.73-9.21,0-3,2.34-5.22,6-5.8V22.56a1.77,1.77,0,0,1,1.77-1.77m0-1.5a3.28,3.28,0,0,0-3.27,3.27v.23c-3.69,1-6,3.65-6,7,0,5.87,5,6.94,8.25,7.64,2.45.53,3.48.86,3.48,1.57s-1.81.9-2.37.9c-1.37,0-2.3-.3-2.54-.82A3.42,3.42,0,0,0,28.91,37h-.45a3.34,3.34,0,0,0-2.8,1.52,3.39,3.39,0,0,0-.27,3.22c.7,1.59,2.26,3.53,5.79,4.28v.16a3.27,3.27,0,1,0,6.54,0V46c3.92-.93,6.3-3.52,6.3-7,0-6.13-5.06-7.21-8.41-7.92-2.28-.48-3.29-.8-3.29-1.38,0-.26,0-.87,2.13-.87.79,0,1.79.12,2,.7a3.39,3.39,0,0,0,3.11,2.12H40a3.36,3.36,0,0,0,2.83-1.55,3.33,3.33,0,0,0,.24-3.19,7.6,7.6,0,0,0-5.37-4.16v-.2a3.28,3.28,0,0,0-3.27-3.27Z"/><rect class="cls-6" x="50.93" y="45.71" width="2.23" height="10.38" transform="translate(-20.75 51.7) rotate(-45)"/><path class="cls-6" d="M34.49,33.35a10.28,10.28,0,1,0,14.53,0A10.26,10.26,0,0,0,34.49,33.35ZM47.71,46.57a8.42,8.42,0,1,1,0-11.91A8.42,8.42,0,0,1,47.71,46.57Z"/><path class="cls-7" d="M35.15,34a9.35,9.35,0,1,0,13.22,0A9.35,9.35,0,0,0,35.15,34ZM47.71,46.57a8.42,8.42,0,1,1,0-11.91A8.42,8.42,0,0,1,47.71,46.57Z"/><path class="cls-8" d="M47.71,34.66a8.42,8.42,0,1,1-11.91,0A8.42,8.42,0,0,1,47.71,34.66Z"/><rect class="cls-9" x="53.09" y="47.63" width="3.25" height="11.89" rx="1.2" transform="translate(-21.86 54.38) rotate(-45)"/><path class="cls-10" d="M13.72,7.56s-1.34,4.82-5.13,6.62c3.79,1.79,5.13,6.61,5.13,6.61s1.34-4.82,5.13-6.61C15.06,12.38,13.72,7.56,13.72,7.56Z"/><path class="cls-10" d="M58.65,12.74s-.84,3-3.22,4.16c2.38,1.13,3.22,4.17,3.22,4.17s.85-3,3.23-4.17C59.5,15.78,58.65,12.74,58.65,12.74Z"/><path class="cls-10" d="M20.12,48s-1.42,5.09-5.41,7c4,1.89,5.41,7,5.41,7s1.41-5.09,5.4-7C21.53,53.07,20.12,48,20.12,48Z"/></g></g></svg>