<svg xmlns="http://www.w3.org/2000/svg" xmlns:xlink="http://www.w3.org/1999/xlink" viewBox="0 0 68.78 68.78"><defs><style>.cls-1{fill:#fff;}.cls-2{fill:url(#linear-gradient);}.cls-3{fill:url(#linear-gradient-2);}.cls-4{fill:url(#linear-gradient-3);}.cls-5{fill:url(#linear-gradient-4);}.cls-6{fill:#ff0606;}</style><linearGradient id="linear-gradient" x1="55.08" y1="17.13" x2="22.49" y2="44.32" gradientUnits="userSpaceOnUse"><stop offset="0" stop-color="#7a5717"/><stop offset="0.29" stop-color="#efca2b"/><stop offset="0.73" stop-color="#dd931d"/><stop offset="1" stop-color="#7a5717"/></linearGradient><linearGradient id="linear-gradient-2" x1="36.84" y1="27.82" x2="26.17" y2="56.39" xlink:href="#linear-gradient"/><linearGradient id="linear-gradient-3" x1="28.49" y1="46.79" x2="35.32" y2="32.91" xlink:href="#linear-gradient"/><linearGradient id="linear-gradient-4" x1="39.53" y1="22.49" x2="28.71" y2="48.57" gradientUnits="userSpaceOnUse"><stop offset="0" stop-color="#fff"/><stop offset="0.29" stop-color="#efca2b"/><stop offset="0.49" stop-color="#dd931d"/><stop offset="0.68" stop-color="#7a5717"/><stop offset="1" stop-color="#fff"/></linearGradient></defs><g id="Layer_2" data-name="Layer 2"><g id="Layer_1-2" data-name="Layer 1"><rect class="cls-1" width="68.78" height="68.78" rx="17.11"/><circle class="cls-2" cx="34.39" cy="34.39" r="20.78"/><path class="cls-3" d="M34.39,13.61A20.78,20.78,0,1,0,55.17,34.39,20.78,20.78,0,0,0,34.39,13.61Zm0,39.67A18.89,18.89,0,1,1,53.28,34.39,18.89,18.89,0,0,1,34.39,53.28Z"/><path class="cls-4" d="M36.15,44.33v1.41a1.7,1.7,0,0,1-1.7,1.7h0a1.7,1.7,0,0,1-1.7-1.7V44.36c-2.85-.32-4.82-1.5-5.68-3.47a1.8,1.8,0,0,1,1.63-2.53h.43a1.87,1.87,0,0,1,1.66,1.15c.49,1.05,1.75,1.62,3.74,1.62,2.37,0,3.72-.81,3.72-2.3C38.25,34.3,27,37.85,27,30c0-2.91,2.25-5,5.77-5.56V23a1.7,1.7,0,0,1,1.7-1.7h0a1.7,1.7,0,0,1,1.7,1.7v1.38c2.58.33,4.43,1.52,5.28,3.39a1.79,1.79,0,0,1-1.64,2.52H39.4a1.86,1.86,0,0,1-1.67-1.18c-.46-1-1.6-1.53-3.28-1.53-2.39,0-3.49.81-3.49,2.27,0,4.33,11.24.78,11.24,8.94C42.2,41.82,39.83,43.84,36.15,44.33Z"/><path class="cls-5" d="M34.45,21.34a1.7,1.7,0,0,1,1.7,1.7v1.38c2.58.33,4.43,1.52,5.28,3.39a1.79,1.79,0,0,1-1.64,2.52H39.4a1.86,1.86,0,0,1-1.67-1.17c-.46-1.06-1.6-1.54-3.28-1.54-2.39,0-3.49.81-3.49,2.27,0,4.33,11.24.78,11.24,8.94,0,3-2.37,5-6.05,5.5v1.41a1.7,1.7,0,1,1-3.4,0V44.36c-2.85-.32-4.82-1.5-5.68-3.47a1.8,1.8,0,0,1,1.63-2.53h.43a1.87,1.87,0,0,1,1.66,1.15c.49,1.05,1.75,1.62,3.74,1.62,2.37,0,3.72-.81,3.72-2.3C38.25,34.3,27,37.85,27,30c0-2.91,2.25-5,5.77-5.56V23a1.7,1.7,0,0,1,1.7-1.7m0-1.44A3.15,3.15,0,0,0,31.31,23v.21c-3.54,1-5.77,3.5-5.77,6.73,0,5.64,4.77,6.66,7.93,7.34,2.35.51,3.34.83,3.34,1.51s-1.74.86-2.28.86c-1.31,0-2.2-.29-2.43-.79a3.3,3.3,0,0,0-3-2H28.7A3.2,3.2,0,0,0,26,38.38a3.24,3.24,0,0,0-.26,3.09c.67,1.53,2.17,3.4,5.56,4.11v.16a3.14,3.14,0,1,0,6.28,0v-.21c3.76-.89,6-3.38,6-6.7,0-5.89-4.86-6.92-8.08-7.61-2.18-.46-3.16-.77-3.16-1.33,0-.25,0-.83,2.05-.83.76,0,1.72.12,2,.67a3.27,3.27,0,0,0,3,2h.39a3.23,3.23,0,0,0,3-4.56,7.3,7.3,0,0,0-5.15-4V23a3.15,3.15,0,0,0-3.14-3.14Z"/><rect class="cls-6" x="32.08" y="4.3" width="4.63" height="60.18" transform="translate(34.39 83.02) rotate(-135)"/><rect class="cls-6" x="32.08" y="4.3" width="4.63" height="60.18" transform="translate(-14.24 34.39) rotate(-45)"/></g></g></svg>