<svg xmlns="http://www.w3.org/2000/svg" xmlns:xlink="http://www.w3.org/1999/xlink" viewBox="0 0 68.78 68.78"><defs><style>.cls-1{fill:#fff;}.cls-2{fill:#ffbc15;}.cls-3{fill:url(#linear-gradient);}.cls-4{fill:url(#linear-gradient-2);}.cls-5{fill:url(#linear-gradient-3);}.cls-6{fill:url(#linear-gradient-4);}.cls-7{fill:url(#linear-gradient-5);}.cls-8{fill:url(#linear-gradient-6);}.cls-9{fill:url(#linear-gradient-7);}.cls-10{fill:url(#linear-gradient-8);}.cls-11{fill:#38a81d;}.cls-12{fill:url(#linear-gradient-9);}.cls-13{fill:url(#linear-gradient-10);}.cls-14{fill:url(#linear-gradient-11);}.cls-15{fill:url(#linear-gradient-12);}</style><linearGradient id="linear-gradient" x1="38.76" y1="15.51" x2="17.61" y2="33.16" gradientTransform="matrix(0.94, -0.34, 0.34, 0.94, -9.86, 16.2)" gradientUnits="userSpaceOnUse"><stop offset="0" stop-color="#7a5717"/><stop offset="0.29" stop-color="#efca2b"/><stop offset="0.73" stop-color="#dd931d"/><stop offset="1" stop-color="#7a5717"/></linearGradient><linearGradient id="linear-gradient-2" x1="26.92" y1="22.45" x2="20" y2="40.99" xlink:href="#linear-gradient"/><linearGradient id="linear-gradient-3" x1="21.5" y1="34.76" x2="25.94" y2="25.75" xlink:href="#linear-gradient"/><linearGradient id="linear-gradient-4" x1="28.67" y1="18.99" x2="21.65" y2="35.92" gradientTransform="matrix(0.94, -0.34, 0.34, 0.94, -9.86, 16.2)" gradientUnits="userSpaceOnUse"><stop offset="0" stop-color="#fff"/><stop offset="0.29" stop-color="#efca2b"/><stop offset="0.49" stop-color="#dd931d"/><stop offset="0.68" stop-color="#7a5717"/><stop offset="1" stop-color="#fff"/></linearGradient><linearGradient id="linear-gradient-5" x1="52.42" y1="37.11" x2="42.67" y2="45.25" gradientTransform="translate(7.04 -9.69) rotate(9.1)" xlink:href="#linear-gradient"/><linearGradient id="linear-gradient-6" x1="46.96" y1="40.32" x2="43.77" y2="48.87" gradientTransform="translate(7.04 -9.69) rotate(9.1)" xlink:href="#linear-gradient"/><linearGradient id="linear-gradient-7" x1="44.46" y1="45.99" x2="46.51" y2="41.84" gradientTransform="translate(7.04 -9.69) rotate(9.1)" xlink:href="#linear-gradient"/><linearGradient id="linear-gradient-8" x1="47.77" y1="38.72" x2="44.53" y2="46.53" gradientTransform="translate(7.04 -9.69) rotate(9.1)" xlink:href="#linear-gradient-4"/><linearGradient id="linear-gradient-9" x1="54.51" y1="11.58" x2="40.19" y2="23.52" gradientTransform="translate(8.25 -13.52) rotate(13.8)" xlink:href="#linear-gradient"/><linearGradient id="linear-gradient-10" x1="46.5" y1="16.28" x2="41.81" y2="28.83" gradientTransform="translate(8.25 -13.52) rotate(13.8)" xlink:href="#linear-gradient"/><linearGradient id="linear-gradient-11" x1="42.83" y1="24.61" x2="45.83" y2="18.51" gradientTransform="translate(8.25 -13.52) rotate(13.8)" xlink:href="#linear-gradient"/><linearGradient id="linear-gradient-12" x1="47.68" y1="13.94" x2="42.93" y2="25.39" gradientTransform="translate(8.25 -13.52) rotate(13.8)" xlink:href="#linear-gradient-4"/></defs><g id="Layer_2" data-name="Layer 2"><g id="Layer_1-2" data-name="Layer 1"><rect class="cls-1" width="68.78" height="68.78" rx="17.11"/><path class="cls-2" d="M19.78,49.84a6.44,6.44,0,0,1-2.89,3.73,6.44,6.44,0,0,1,2.89,3.73,6.44,6.44,0,0,1,2.89-3.73A6.44,6.44,0,0,1,19.78,49.84Z"/><circle class="cls-3" cx="23" cy="32.79" r="13.49"/><path class="cls-4" d="M18.45,20.09A13.49,13.49,0,1,0,35.7,28.23,13.49,13.49,0,0,0,18.45,20.09Zm8.69,24.24a12.26,12.26,0,1,1,7.4-15.68A12.27,12.27,0,0,1,27.14,44.33Z"/><path class="cls-5" d="M26.26,38.47l.31.87a1.12,1.12,0,0,1-.67,1.41h0a1.12,1.12,0,0,1-1.41-.67l-.3-.84c-1.81.43-3.28.14-4.23-.87a1.17,1.17,0,0,1,.44-1.91l.26-.09a1.22,1.22,0,0,1,1.27.33c.53.54,1.42.61,2.64.17,1.44-.51,2.09-1.3,1.77-2.22-1-2.76-7.1,1.87-8.83-2.93-.63-1.78.28-3.56,2.31-4.66l-.31-.85a1.12,1.12,0,0,1,.67-1.41h0a1.11,1.11,0,0,1,1.41.67l.3.84a4.09,4.09,0,0,1,4,.91,1.16,1.16,0,0,1-.44,1.9l-.24.09a1.21,1.21,0,0,1-1.28-.35c-.51-.55-1.31-.59-2.34-.22-1.47.52-2,1.26-1.64,2.15.95,2.64,7-2,8.83,3C29.4,35.62,28.4,37.37,26.26,38.47Z"/><path class="cls-6" d="M20.18,24.8a1.11,1.11,0,0,1,1.41.67l.3.84a4.09,4.09,0,0,1,4,.91,1.16,1.16,0,0,1-.44,1.9l-.24.09a1.21,1.21,0,0,1-1.28-.35c-.51-.55-1.31-.59-2.34-.22-1.47.52-2,1.26-1.64,2.15.95,2.64,7-2,8.83,3,.65,1.83-.35,3.58-2.49,4.68l.31.87a1.1,1.1,0,0,1-2.08.74l-.3-.84c-1.81.43-3.28.14-4.23-.87a1.17,1.17,0,0,1,.44-1.91l.26-.09a1.22,1.22,0,0,1,1.27.33c.53.54,1.42.61,2.64.17,1.44-.51,2.09-1.3,1.77-2.22-1-2.76-7.1,1.87-8.83-2.93-.63-1.78.28-3.56,2.31-4.66l-.31-.85a1.12,1.12,0,0,1,.67-1.41m-.32-.88a2,2,0,0,0-1.23,2.61l.05.13a4.57,4.57,0,0,0-2,5.37c1.23,3.45,4.37,3,6.44,2.75,1.55-.21,2.23-.23,2.38.19s-.88.91-1.21,1c-.8.29-1.41.31-1.66.06a2.1,2.1,0,0,0-2.24-.56l-.27.09a2.11,2.11,0,0,0-.8,3.43,4.7,4.7,0,0,0,4.3,1.29l0,.1A2,2,0,1,0,27.45,39l-.05-.13c2.1-1.37,3-3.39,2.23-5.42-1.29-3.59-4.49-3.16-6.6-2.87-1.44.19-2.1.22-2.23-.12-.05-.16-.18-.51,1.07-1,.47-.17,1.08-.31,1.35,0a2.12,2.12,0,0,0,2.27.59l.24-.09a2.11,2.11,0,0,0,1.34-1.5,2.08,2.08,0,0,0-.54-1.93,4.72,4.72,0,0,0-4-1.3l0-.12a2,2,0,0,0-2.61-1.23Z"/><circle class="cls-7" cx="46" cy="39.37" r="6.22"/><path class="cls-8" d="M47,33.23a6.22,6.22,0,1,0,5.16,7.13A6.23,6.23,0,0,0,47,33.23ZM45.1,45a5.66,5.66,0,1,1,6.48-4.69A5.67,5.67,0,0,1,45.1,45Z"/><path class="cls-9" d="M46.05,42.39l-.07.42a.5.5,0,0,1-.58.42h0a.5.5,0,0,1-.42-.58l.06-.41A1.92,1.92,0,0,1,43.53,41a.53.53,0,0,1,.6-.67l.12,0a.54.54,0,0,1,.44.42c.1.33.44.56,1,.65s1.14-.06,1.21-.5c.21-1.34-3.28-.83-2.91-3.15a1.76,1.76,0,0,1,2-1.37l.07-.41a.5.5,0,0,1,.58-.42h0a.5.5,0,0,1,.42.58l-.06.41a1.87,1.87,0,0,1,1.4,1.25.54.54,0,0,1-.6.67l-.12,0a.56.56,0,0,1-.44-.43c-.08-.33-.4-.52-.89-.6-.71-.12-1.07.07-1.14.5-.21,1.28,3.28.76,2.9,3.17C48,41.94,47.16,42.42,46.05,42.39Z"/><path class="cls-10" d="M46.63,35.52a.5.5,0,0,1,.42.58l-.06.41a1.87,1.87,0,0,1,1.4,1.25.54.54,0,0,1-.6.67l-.12,0a.56.56,0,0,1-.44-.43c-.08-.33-.4-.52-.89-.6-.71-.12-1.07.07-1.14.5-.21,1.28,3.28.76,2.9,3.17-.15.89-.94,1.37-2.05,1.34l-.07.42a.5.5,0,0,1-.58.42.5.5,0,0,1-.42-.58l.06-.41A1.92,1.92,0,0,1,43.53,41a.53.53,0,0,1,.6-.67l.12,0a.54.54,0,0,1,.44.42c.1.33.44.56,1,.65s1.14-.06,1.21-.5c.21-1.34-3.28-.83-2.91-3.15a1.76,1.76,0,0,1,2-1.37l.07-.41a.5.5,0,0,1,.58-.42m.07-.43a1,1,0,0,0-1.08.78v.07a2.11,2.11,0,0,0-2,1.71c-.26,1.67,1.1,2.2,2,2.55.67.26.95.4.91.6S46,41,45.79,41c-.39-.06-.64-.19-.68-.35a1,1,0,0,0-.79-.73l-.12,0a1,1,0,0,0-1.09,1.21,2.17,2.17,0,0,0,1.45,1.48v0a.94.94,0,0,0,1.86.3v-.06a2.08,2.08,0,0,0,2.1-1.7c.28-1.74-1.11-2.27-2-2.63-.63-.24-.9-.37-.88-.54s0-.25.65-.15c.22,0,.5.12.55.29a1,1,0,0,0,.78.75h.12a.94.94,0,0,0,.87-.3,1,1,0,0,0,.22-.9,2.17,2.17,0,0,0-1.34-1.42v-.06a1,1,0,0,0-.78-1.08Z"/><polygon class="cls-11" points="41.61 53.18 33.34 61.45 27.16 55.28 29.73 52.72 33.34 56.33 39.05 50.62 41.61 53.18"/><circle class="cls-12" cx="47.78" cy="15.92" r="9.13"/><path class="cls-13" d="M50,7.06a9.13,9.13,0,1,0,6.69,11A9.12,9.12,0,0,0,50,7.06ZM45.8,24a8.3,8.3,0,1,1,10-6.08A8.29,8.29,0,0,1,45.8,24Z"/><path class="cls-14" d="M47.49,20.35l-.15.6a.75.75,0,0,1-.9.55h0a.76.76,0,0,1-.55-.91L46,20A2.82,2.82,0,0,1,44,17.93a.79.79,0,0,1,1-.91l.18.05a.79.79,0,0,1,.59.66c.1.5.58.87,1.43,1.08,1,.25,1.67.05,1.83-.59.47-1.93-4.71-1.6-3.88-4.95.3-1.25,1.48-1.91,3-1.77l.14-.59a.76.76,0,0,1,.91-.55h0a.74.74,0,0,1,.54.9l-.14.59a2.78,2.78,0,0,1,1.9,2,.79.79,0,0,1-1,.91l-.17,0a.82.82,0,0,1-.59-.68c-.09-.5-.52-.82-1.24-1-1-.25-1.57,0-1.73.61-.45,1.84,4.71,1.51,3.86,5C50.34,19.91,49.12,20.52,47.49,20.35Z"/><path class="cls-15" d="M49.18,10.36a.74.74,0,0,1,.54.9l-.14.59a2.78,2.78,0,0,1,1.9,2,.79.79,0,0,1-1,.91l-.17,0a.82.82,0,0,1-.59-.68c-.09-.5-.52-.82-1.24-1-1-.25-1.57,0-1.73.61-.45,1.84,4.71,1.51,3.86,5-.31,1.28-1.53,1.89-3.16,1.72l-.15.6a.75.75,0,0,1-.9.55.76.76,0,0,1-.55-.91L46,20A2.82,2.82,0,0,1,44,17.93a.79.79,0,0,1,1-.91l.18.05a.79.79,0,0,1,.59.66c.1.5.58.87,1.43,1.08,1,.25,1.67.05,1.83-.59.47-1.93-4.71-1.6-3.88-4.95.3-1.25,1.48-1.91,3-1.77l.14-.59a.76.76,0,0,1,.91-.55m.15-.61a1.38,1.38,0,0,0-1.67,1l0,.09a3.11,3.11,0,0,0-3.17,2.27c-.59,2.4,1.34,3.34,2.61,4,1,.46,1.34.7,1.27,1s-.83.18-1.06.13c-.56-.14-.91-.35-1-.59a1.45,1.45,0,0,0-1.06-1.16l-.18,0a1.39,1.39,0,0,0-1.3.34A1.41,1.41,0,0,0,43.36,18a3.19,3.19,0,0,0,1.94,2.34l0,.06A1.38,1.38,0,1,0,48,21.1L48,21a3.05,3.05,0,0,0,3.28-2.23c.62-2.51-1.34-3.46-2.64-4.08-.89-.43-1.27-.66-1.21-.9s.08-.36,1-.15c.32.08.72.23.77.5a1.44,1.44,0,0,0,1.06,1.18l.16,0a1.42,1.42,0,0,0,1.74-1.63,3.2,3.2,0,0,0-1.78-2.24l0-.08a1.38,1.38,0,0,0-1-1.67Z"/><path class="cls-2" d="M56.08,32.35s-1,3.75-4,5.14c2.94,1.39,4,5.14,4,5.14s1.05-3.75,4-5.14C57.13,36.1,56.08,32.35,56.08,32.35Z"/><path class="cls-2" d="M23,8.58s-.84,3-3.22,4.16C22.16,13.87,23,16.9,23,16.9s.85-3,3.23-4.16C23.85,11.61,23,8.58,23,8.58Z"/></g></g></svg>